<svg xmlns="http://www.w3.org/2000/svg" xmlns:xlink="http://www.w3.org/1999/xlink" width="300" height="300"><defs><linearGradient id="a" x1="0%" y1="100%" x2="0%" y2="0%"><stop offset="0%" style="stop-color:#a2d8f4;stop-opacity:1"/><stop offset="100%" style="stop-color:#47b1e9;stop-opacity:1"/></linearGradient></defs><rect width="300" height="300" fill="url(#a)"/><g class="prop"><g class="f1"><path fill="#a2d8f4" d="M397 314v-86H-97v86h494Z" data-rand=".4"/><path fill="#fff" fill-opacity=".4" d="m212 275 7 1-16-4h-10l-3 1h-2 3l11 1 10 1m90 17h9l-15-1-12-2h-6l-10 1q-6 2 3 2h31m56-16-12-2-7-1q11 5 23 4l10-1h-14m-425-3 7 1-8-2h-10l-6 1h17m172 11h-7l-7 2-8 1h8l7-1h14l-7-2m39 17-13-2-9 2-4 1h3l8-1 23 2-8-2m227-70h12l9-1h5v-2H-97v2h26l8 1h7l-13 2h30l6-1 25-2 5 1h29l-16 2h21l6-1 7-1h44l-4 2h6l12-1 13-1h28l15 1-7 1 29-2-12-1h10l14 1h24l24-1 9 1 10 1 12-2 14-1 24 1 20 1 21-1 9 1h12Z" data-rand=".3"/><path fill-opacity=".2" d="m-65 273-5-2h-8l-4 1h-6 21l2 1m37 8 3 1 7 1 7-1-5-1h-5l-5-1-4-1-5 1-4 1-7 1-6-1h-7l-7 2 6-1 6 1q4 0 10 3h-10l-11 3h18l5 1 18 1-3-1-4-1-5-2h-1l-2-1-2-1-2-1 6-1 5-2h4m22-9-5-1q-3-1-7 1l-6 1h5l6-1 13 2-6-2m55 6-4-1-5-1-10 1-7 1h-2 5l13-1 10 1m62 3 7 1h6l-14-3h-5l-5 1-12 1-5 1h13q4 0-9 3l12-2 2-1 4-2h3l3 1m92-4h-6l-6-1-6 1-5 1h12l21 1-10-2m75 2 2 1 4 1q3 1 14-1h-12l-5-1h-3m81 1 6-1-18-2-7-1-7-1-9 1-8 1q-3 1 5 1l9-1-9 1-8 1-3 1h22l7 1q4 0 1-1l-4-2q-2-1-1-2l8 2 8 2h8m32 16h4q-6-2-17-2l-18 3q15 1 25 6-18 2-42 2 3-2 7-2l9-2-9-1-10-1-8-1-8-1q3-2 10-2h11q-7-3-16-4h-16l4-2 5-1-20-1q-12 0-20 2l17 2 17 1-9 2-9 1q6-1 14 1t13 5q-4 2-11 1h-11l-4 1h-15q9-4 15-4-3-2-11-2l-6 1h-15l-9 2 7 1q4 0 7 2-3 2-8 2l-7-1-9-2-8-1 13-3-22 1q-13 1-21 4 4 2 13 3l14 1q-14 2-29 1l-14-1q-8-2-14-1 10-4 18-4-6-3-17-3h-18q2-2 7-2l8-1q-11-3-23-3-15-1-23 3l11 1h12l-4 2-4 2h4-16q-11-1-17 1l7 1 6 1 5 1 5 1h-10l-10 1-11-2-10-1 4 2 5 2-17-1H76l9-3 9-2h-9l-9 2-9-1-8 1q-7 2-16 2l-17-2q9-4 17-5h17l-13-2-14-2H20l-13 2 8 1 7 1-14 2q-10 2-15 1l-11-1h-11l8 1 7 3-11 1-11-2-11-1-11 1 19-3-15 1-16-1h-6l-6-1q-8 0-15 3v11h494v-15h-5l-5-1 4-2m-5-11-1-1-5-1q-8-2-17 1h19l4 1m-232-16h-5l-5 1h-4l-7 1h17l-3 2h-13l-14 1h13l19 2h8l5-2-6-1-5-1h10l8 1h6l-3-1-7-1-8-1-6-1m211-10h9l-5-1-15 1h11m-105 9h-5 15l15 1-10-2h-11l-4 1m-30-4h-1 19-7l-4-1h-3l-4 1m-5 0h4-4m-43 0 6-1 11 1-6-1q-6-1-13 1h2m-71-5 8 1-5-2-9 1h6m-51 9h-1l6 1h5l-5-1h-5m-35-8h-3l12 1-5-1h-4Z" data-rand=".1"/><path stroke="#536e7c" stroke-opacity="0" stroke-width=".238" stroke-linejoin="round" stroke-linecap="round" fill="none" d="M317 267h13m11 21h8l9 1h8l9 1m-79-13h7l7-1m-86 15h18m-87-1 25 2 24 2m53-14h12m-310-11h20m-70 25 5-1h6l7 1 7 1m112 0 17 1 17 1m-103 2h11" data-rand=".4"/></g></g><g class="prop"><g class="f1"><path fill="#ffd8a8" d="M304 259q-46-4-60-2-16 3-63 4h-44l-78-1-88-1-46-2q-40-3-50-2l-38 4-48 4v101h722V257h-57l-47 2-47 4h-24l-32-4Z" data-rand=".2"/><path fill-opacity=".2" d="M-15 311h-11q-5 0-4 1l11 2q9 0 8-1l-4-2m68 0 4-1-7-1h-6l-7 1 5 1h11m-226-4-15 2-4 1h11l10 1q5 0 4-1l-6-3m50-10 9 1h9q2-1-7-3l-10-2-5 1-2 1q-2 0 1 1 3 2 5 1m340 18-7 1q-5 1-2 1l6 2h12q4 0 2-1l-6-2-5-1m207 6-21-5q-13-3-22-2l-20 3q-12 3-20 2l10 3 11 2h-43l-42 1-32 1h-32l-36-3q-22-2-36 0-17 3-42-1-27-5-42-6-10-1-24 1l-25 4-39 4q-22 2-39 0-37-4-55-4l28 4q18 4 28 4l-22 1h-21l-18-2-20-3q-23-3-37 0l-11 4q-8 3-13 3v32h722v-34l-27-2-30-2-30-5m-65-20q5-1 2-2l-6 1q-5 0-3 1h7m-96-5q-3 1-2 2l2 2h5l4-2q1-1-9-2Z" data-rand=".6"/><path fill-opacity=".3" d="M-154 309v-1 1m79 11v-1 1m7 9 1-1h-1v1m4-15 1 1v-1l-1-1v1m26 11h1v-1h-1v1m24-14 1-1-1 1m27 9v-1h-1v1h1m24 4v-1h-1 1v1m11-13v-1 1m11 20 1-1v-1l-1 1h-1l1 1m-3-11h1l-1-1v1m-5-3v-1 1m96 8h1l-1-1v1m-11 6v-1 1m-308-44h2v-1h-2v1m308 16h1v-1h-1v1m-49 5v-1h-1v1h1m-25-4h1-1v-1 1m-19 4-1-1v1h1m-3-12v1h-1v1l1-1v-1m-77 1v-1 1m-8-9h1v-1l-1 1m-4 14 1 1v-1h-1m-26-9 1-1v-1l-1 1v1m-24 14 1-1h-1v1m-25-10v-1h-1v1h1m-39 3v-1 1m14-7v1l1-1h-1l1-1-1 1m346 28h1v-1l-1 1m29-2v-1 1m-15-6h2v-1h-2v1m21 5h1v-1 1h-1v-1 1m74 2v-1 1m-8-9-1-1v1h1m88 20v-1 1m11-6h1l-1-1v1m51-4v-1l-1 1h1m16-27h1v-1l-1 1m-48 5h1v-1h-1v1m-30 4h1v-1h-1v1m-49 5v-1h-1v1h1m-25-4h1-1q1 0 0 0v-1 1m-23-6 1-1v-1 1h-1v1m-36 11 1-1-1 1m14-15 1 1v-2l-1 1m-100 5v-1l-1 1h1Z" data-rand=".8"/><path stroke="#000" stroke-width=".833" stroke-linejoin="round" stroke-linecap="round" fill="none" d="M511 256h-57l-47 2-47 4-24-1-33-3q-45-5-59-2-17 2-63 3l-44 1-78-1-88-1-46-3q-40-2-50-1l-38 3-48 5" data-rand=".8"/></g></g><g class="prop"><g class="f1"><path fill="#a2d8f4" d="m94 268 3-1h4l3 1 3-1 4-1 8 2q4 2 7 1l4-1 4-2 3 1 3 1h6v-32h-473v33l2 1 2 2h3l2-1 3-1q2 0 3 2l2 2h15l2-3 2-2h3l3 1q2 0 3-2l3-2q3-2 6-1l5 1 11 2 3-2h6l3 1h3l3 1 2 2 3 1 6 3q3 1 6-1l2-1 3-1h2l2-1 2-1 1-1h2l3 1 5-1h4l3 1 2 1h3l3-2h3l4 1 5 2 5 1h6l7 1 7 3 8 2 9-1 8-2h4l3-2 1-1 3-1 5 1 5 1 5-1 5-2 3 1h3l2-1 1-1h5l5 1v1h7l7-2 11 1 11-1 4-1 3-2h12l5-1 4-1 7 2 6 2 3 4 4 4 8 1 8 1 7 1 6 1 4-2 1-3 2-3q1-2 4-1l4 1 5 2 4-1 5-2 6-2 8 1h8l3-2m-66-3-3-1 3 1Z" data-rand=".7"/><path fill="#fff" fill-opacity=".9" d="m-80 256-6 2-6 2q-5 2-11 2h-7l-6-2-5 1-4 1q-4 2-6 1l-7-2h-6l-6 2h-14l-6-3q-4-2-7-1l-7 1-7 1h-13q-3 1-6-1l-5-2-12 2h-10l-4 2-3-3-4-2-3 1-3 2-5 1h-7l-10 1-11-1-3-1h-3l-3 1-3 1h-6l-5-2-5-2-5 2-2 1-2 1-2 1-1 1v5l2 1 2 2h3l2-1 3-1q2 0 3 2l2 2h15l2-3 2-2h3l3 1q2 0 3-2l3-2q3-2 6-1l5 1 11 2 3-2h6l3 1h3l3 1 2 2 3 1 6 3q3 1 6-1l2-1 3-1h2l2-1 2-1 1-1h2l3 1 5-1h4l3 1 2 1h3l3-2h3l4 1 5 2 5 1h6l7 1 7 3 8 2 9-1 8-2h4l3-2 1-1 3-1 5 1 5 1 5-1 5-2 3 1h3l2-1 1-1h5l5 1v1h7l7-2 11 1 11-1 4-1 3-2h12l5-1 4-1 7 2 6 2 3 4 4 4 8 1 8 1 7 1 6 1 4-2 1-3 2-3q1-2 4-1l4 1 5 2 4-1 5-2 6-2 8 1h8l3-2 3-1h4l3 1 3-1 4-1 8 2q4 2 7 1l4-1 4-2 3 1 3 1h6v-7l-2-2h-6l-2 1-10-1H95l-8 1-9 1H62l-7 1-6 2-5-1-4-2q-3-1-7 1l-5 3-6-2-2-2-3-2h-4l-3 1q-5 1-8-1l-6-3-6-1-7 2-6 3h-11l-5 1q-3 1-6-1l-6-2q-2-1-8 1h-8l-6-2q-4-2-7-1Z" data-rand=".8"/><path fill="#fff" fill-opacity=".4" d="M-302 243h-4l-6 1h11l-1-1m179-1h15l5 1h8-7l-5-1-6-1-10 1m-20 7h-7l32 1h-2l-4-1-6-1h-5l-8 1m-30-4 11 2q2 1 16-1l-20-1-4-1-3-1-8 1-9 1h17m-28 2q-5 1-2 1l27 2-4-1-7-1-5-1-2-1-7 1m7-6h7l-5-1h-5l3 1m-24 12-4-1h-10l14 1m-8-11h13l-8-2-5 2m-24 2 14-1h-8l-6 1m-25 11h10l-7-2h-16q-1 1 5 1l8 1m6-12-7-2-5 1 12 1m346 8h4l5-1h9-8q-8-1-10 1m-22-8h5l6 1-7-2-4 1m-17-1-5 1 10 1-5-2m-12 8-5-1h-2l-9 1-8 1h31l-7-1m-14-10h-2l3 1h7l-5-1h-3m-57 5-7 1h-4 13l6-1 11 2-4-1-5-2-10 1m-37 0-7 2h-4l-3 1 12-1 13 1-11-3m6-4h6l-4-1h-3l-2 1h3m180 2h-7l-5 1 12 1h4l6 1 13-1-19-1-4-1Z" data-rand=".4"/><path fill-opacity=".1" d="m-255 267 2-1q-5 1-10-1l-2-1-2-1h-8l-7 1-2 1h-1v1h-3l-2-1h-6q2 4-2 6h-7q-3-1-4-4l-3-3h-3l-3 3h-5l-4-2v4l2 1 2 2h3l2-1 3-1q2 0 3 2l2 2h15l2-3 2-2h3l3 1q2 0 3-2l3-2q3-2 6-1l5 1 11 2 2-1m192 3q-2 0-2-4l-3 1-4 1-2-2-3-3h-7l-1 3-2 2-3-1h-4l-3 1-3 2h-4l-4-2h-4l-4 1-5-2-4-1-1 3 1 4-6-2-5-1q5 2 3 4l-6 1h-4l-3-1v-1l-1-2-2-1h-4q4 3 1 3-3 1-6-1l-5-3-5-2 1 2 1 2-4-1-4-1-1-3q0-2-2-2h-3l-4 1q0 3-5 3h-3l-3-2-4-1-4-1-1 1v1h-7q-5-1-5-3l-6 1 1 3v1q0 2-4 3-3 1-6-1t-4-6h-5l-4-1-3-1-4-1 2 4-1 1h2l3 1h3l3 1 2 2 3 1 6 3q3 1 6-1l2-1 3-1h2l2-1 2-1 1-1h2l3 1 5-1h4l3 1 2 1h3l3-2h3l4 1 5 2 5 1h6l7 1 7 3 8 2 9-1 8-2h4l3-2 1-1 3-1 5 1 5 1 5-1 5-2 3 1h3l2-1 1-1h5l5 1v1h5l5-1m26-1h2l-9-1-8-2-4 2-4 2 1-1 11 1 11-1m183-1v-3l-5-1h-5l-4 1-5 1q-6 1-6-4l-10 1-10 1-9 1q-5 1-10-2-2 4-4 4l-7 1h-6l-7 1q-2 1-6-1l-5-1-5 1-5 2 2 4q0 2-3 2h-1l-2-1h-2l-10-1q-7-1-10-3l-2-3-3-1-4-1q-2-1 0-3l-6-1-6-1-4 1-4 1-4-1h-4l-3 2-2 3 1-1h12l5-1 4-1 7 2 6 2 3 4 4 4 8 1 8 1 7 1 6 1 4-2 1-3 2-3q1-2 4-1l4 1 5 2 4-1 5-2 6-2 8 1h8l3-2 3-1h4l3 1 3-1 4-1 8 2q4 2 7 1l4-1 4-2 3 1 3 1h6Z" data-rand=".8"/><path stroke="#000" stroke-width=".174" stroke-linejoin="round" stroke-linecap="round" fill="none" d="m-327 269 2 1 2 2h3l2-1 3-1q2 0 3 2l2 2h15l2-3 2-2h3l3 1q2 0 3-2l3-2q3-2 6-1l5 1 11 2 3-2h6l3 1h3l3 1 2 2 3 1 6 3q3 1 6-1l2-1 3-1h2l2-1 2-1 1-1h2l3 1 5-1h4l3 1 2 1h3l3-2h3l4 1 5 2 5 1h6l7 1 7 3 8 2 9-1 8-2h4l3-2 1-1 3-1 5 1 5 1 5-1 5-2 3 1h3l2-1 1-1h5l5 1v1h7l7-2 11 1 11-1 4-1 3-2h12l5-1 4-1 7 2 6 2 3 4 4 4 8 1 8 1 7 1 6 1 4-2 1-3 2-3q1-2 4-1l4 1 5 2 4-1 5-2 6-2 8 1h8l3-2 3-1h4l3 1 3-1 4-1 8 2q4 2 7 1l4-1 4-2 3 1 3 1h6" data-rand=".1" stroke-opacity="0"/><path stroke="#000" stroke-width=".087" stroke-linejoin="round" stroke-linecap="round" fill="none" d="M146 261q0 0 0 0l-2-2h-6l-2 1-10-1H95l-8 1-9 1H62l-7 1-6 2-5-1-4-2q-3-1-7 1l-5 3-6-2-2-2-3-2h-4l-3 1q-5 1-8-1l-6-3-6-1-7 2-6 3h-11l-5 1q-3 1-6-1l-6-2q-2-1-8 1h-8l-6-2q-4-2-7-1l-6 2-6 2q-5 2-11 2h-7l-6-2-5 1-4 1q-4 2-6 1l-7-2h-6l-6 2h-14l-6-3q-4-2-7-1l-7 1-7 1h-13q-3 1-6-1l-5-2-12 2h-10l-4 2-3-3-4-2-3 1-3 2-5 1h-7l-10 1-11-1-3-1h-3l-3 1-3 1h-6l-5-2-5-2-5 2-2 1-2 1-2 1-1 1" data-rand=".5" stroke-opacity="0"/></g></g><g class="prop"><g class="f1"><path fill="#a2d8f4" d="M543 264q1-2 3-2l3 1 3 1 4-2 4-1 7 2 7 2 5-2 4-1h2l3 1h7v-31H121v33h2l2 2 3 1 3-2 3-1 2 2 2 2 4 1 3-1 4 1 5-1 1-2 2-2h3l3 1 4-2 3-3 5-1 5 2q7 2 12 1l3-1 2-1 3 1h6l3 1 3 2 3 2 5 2h6l3-2 2-1h5l1-1 1-1h10l4-1 3 1 2 2 4-1 2-1h4l3 1 5 1 6 1 6 1h6l8 3 8 2q3 1 8-1l9-2h3l3-1 2-2 3-1 5 1 4 1q3 1 5-1l5-2 3 1 3 1 2-1 2-1 5-1 4 1 1 1h7l7-1 10 1 11-1 4-2 4-1 6-1h6l4-1h5l6 1 7 3 3 4 3 4 8 1h9l6 1 6 1q3 0 4-2l2-3 1-3 4-1 5 2 4 1h5l4-2q4-3 7-3l7 1 4 1h5l3-2m-66-4h-4 4Z" data-rand=".5"/><path fill="#fff" fill-opacity=".9" d="m368 251-6 2-6 3-10 2-7-1-7-1h-4l-5 2-6 1-6-2h-6l-6 1-7 1-7-1-6-2-7-2-7 2-7 1h-14l-5-2-5-1q-4-1-12 2h-3l-3-1h-4l-4 2-3-2-4-2h-3l-3 2-6 1-6 1h-11l-10-1-3-1h-4l-2 2-3 1h-6l-5-3-5-1-5 2-2 1-2 1-2 1h-2v6h2l2 2 3 1 3-2 3-1 2 2 2 2 4 1 3-1 4 1 5-1 1-2 2-2h3l3 1 4-2 3-3 5-1 5 2q7 2 12 1l3-1 2-1 3 1h6l3 1 3 2 3 2 5 2h6l3-2 2-1h5l1-1 1-1h10l4-1 3 1 2 2 4-1 2-1h4l3 1 5 1 6 1 6 1h6l8 3 8 2q3 1 8-1l9-2h3l3-1 2-2 3-1 5 1 4 1q3 1 5-1l5-2 3 1 3 1 2-1 2-1 5-1 4 1 1 1h7l7-1 10 1 11-1 4-2 4-1 6-1h6l4-1h5l6 1 7 3 3 4 3 4 8 1h9l6 1 6 1q3 0 4-2l2-3 1-3 4-1 5 2 4 1h5l4-2q4-3 7-3l7 1 4 1h5l3-2q1-2 3-2l3 1 3 1 4-2 4-1 7 2 7 2 5-2 4-1h2l3 1h7v-7h-1l-2-1-2-1-3 1-3 1-9-1-10-1h-21l-9 2-9 1-8-1h-8l-6 2-6 2q-3 0-5-2l-5-2-6 2-6 2q-3 1-5-2l-2-2-3-1h-4l-4 1q-4 1-7-1l-6-3-7-2-7 2-6 3h-6l-5 1-5 1-6-2-6-2-7 1-8 1-7-3-7-1Z" data-rand=".2"/><path fill-opacity=".2" d="M154 243h-5q-2 1 0 1l10-1h-5m155-5-3 1 6 1h7l-7-2h-3Z" data-rand=".8"/><path fill="#fff" fill-opacity=".4" d="m146 239-3-1-7 2h12l-2-1m179-1h5l4-1 6 1h13-7l-5-1h-6l-10 1m-19 6-7 1 31 1-1-1-4-1h-19m-30-4 11 3 16-1-20-2-4-1h-4l-8 1h-8 17m-28 3h-3l28 2-5-1h-7l-4-1-3-1-6 1m7-7 6 1-5-2-3 1h-1 3m-25 13-4-2-9 1 13 1m-7-12h13l-9-1-4 1m-25 2h14l-8-1-6 1m-25 11 10 1-6-2h-16l5 1h7m7-11-7-2-5 1 12 1m346 7q-1 1 4 1l5-1h8l-8-1-9 1m-22-8 4 1h6l-6-2-4 1m-18 0-5 1h10l-5-1m-11 7h-7l-9 1h-8 20l11 1-7-2m-15-9h-1 3l6 1-5-2-3 1m-56 5h-8l-4 1h13l7-1 10 1-3-1-6-1-9 1m-37 0-8 1-3 1h-4l13-1 12 1-10-2m6-5 6 1-5-2-3 1h-1 3m180 3-4-1-4 1h-4l12 2h9l14-1-19-1h-4Z" data-rand=".7"/><path fill-opacity=".1" d="m194 263 1-1-10-2-2-1-2-1h-8l-6 2h-4v1l-1 1-2-1-1-1h-3l-3 1q2 3-2 5t-8 1l-4-4-3-4-3 1-2 2h-6l-4-1v4h2l2 2 3 1 3-2 3-1 2 2 2 2 4 1 3-1 4 1 5-1 1-2 2-2h3l3 1 4-2 3-3 5-1 5 2q7 2 12 1h2m191 3q-2-1-1-4l-4 1h-3q-2 0-3-2t-3-2h-6l-1 2q0 2-2 2h-4l-4-1-3 2-2 2q-3 1-5-1l-3-2-5 1h-4l-4-1q-3-2-4-1-2 0-1 3v3l-5-1-5-2q4 3 2 4l-6 1h-3l-4-1v-2l-3-2h-3q4 3 1 4l-6-1-5-3-5-3 1 2v2h-3l-4-2-1-2-2-3-4 1h-4q0 3-4 4l-4-1-2-2h-5l-4-1v1h-7q-5 0-5-2l-6 1v2l1 2q0 2-4 3-4 0-7-2-2-1-3-5h-5l-4-2-4-1-3-1 2 5h-2l3 1h5l3 1 3 2 3 2 5 2h6l3-2 2-1h5l1-1 1-1h10l4-1 3 1 2 2 4-1 2-1h4l3 1 5 1 6 1 6 1h6l8 3 8 2q3 1 8-1l9-2h3l3-1 2-2 3-1 5 1 4 1q3 1 5-1l5-2 3 1 3 1 2-1 2-1 5-1 4 1 1 1 5 1 4-1m26-1 3-1q-3 1-9-1t-9-1l-4 1-4 2h2l10 1 11-1m184-2v-3l-6-1h-5l-4 1-5 1q-5 1-5-3l-10 1h-10l-10 2q-4 0-9-3-2 4-5 5h-6l-7 1-6 1-6-1q-3-2-6-1l-5 1-5 2 2 4q0 2-2 2l-2-1-1-1-1 1h-2l-10-1q-6-1-9-4l-2-2-3-2-5-1q-2 0 0-3l-5-1h-6l-4 1h-12q-2 0-3 2l-3 2h2l6-1h6l4-1h5l6 1 7 3 3 4 3 4 8 1h9l6 1 6 1q3 0 4-2l2-3 1-3 4-1 5 2 4 1h5l4-2q4-3 7-3l7 1 4 1h5l3-2q1-2 3-2l3 1 3 1 4-2 4-1 7 2 7 2 5-2 4-1h2l3 1h7Z" data-rand=".5"/><path stroke="#000" stroke-width=".174" stroke-linejoin="round" stroke-linecap="round" fill="none" d="M121 265h2l2 2 3 1 3-2 3-1 2 2 2 2 4 1 3-1 4 1 5-1 1-2 2-2h3l3 1 4-2 3-3 5-1 5 2q7 2 12 1l3-1 2-1 3 1h6l3 1 3 2 3 2 5 2h6l3-2 2-1h5l1-1 1-1h10l4-1 3 1 2 2 4-1 2-1h4l3 1 5 1 6 1 6 1h6l8 3 8 2q3 1 8-1l9-2h3l3-1 2-2 3-1 5 1 4 1q3 1 5-1l5-2 3 1 3 1 2-1 2-1 5-1 4 1 1 1h7l7-1 10 1 11-1 4-2 4-1 6-1h6l4-1h5l6 1 7 3 3 4 3 4 8 1h9l6 1 6 1q3 0 4-2l2-3 1-3 4-1 5 2 4 1h5l4-2q4-3 7-3l7 1 4 1h5l3-2q1-2 3-2l3 1 3 1 4-2 4-1 7 2 7 2 5-2 4-1h2l3 1h7" data-rand=".9" stroke-opacity="0"/><path stroke="#000" stroke-width=".087" stroke-linejoin="round" stroke-linecap="round" fill="none" d="M595 256h-1l-2-1-2-1-3 1-3 1-9-1-10-1h-21l-9 2-9 1-8-1h-8l-6 2-6 2q-3 0-5-2l-5-2-6 2-6 2q-3 1-5-2l-2-2-3-1h-4l-4 1q-4 1-7-1l-6-3-7-2-7 2-6 3h-6l-5 1-5 1-6-2-6-2-7 1-8 1-7-3-7-1-6 2-6 3-10 2-7-1-7-1h-4l-5 2-6 1-6-2h-6l-6 1-7 1-7-1-6-2-7-2-7 2-7 1h-14l-5-2-5-1q-4-1-12 2h-3l-3-1h-4l-4 2-3-2-4-2h-3l-3 2-6 1-6 1h-11l-10-1-3-1h-4l-2 2-3 1h-6l-5-3-5-1-5 2-2 1-2 1-2 1h-2" data-rand=".6" stroke-opacity="0"/></g></g><g class="prop"><g class="f3"><path fill="#fff" d="m139 196-1 1-7 8q-7 9-8 13v3-2h4l9 2h1v1l7-1 5-1-6-14-3-7-1-3-2 25-1-1v-9l1-13 2-2Z" data-rand=".8"/><path fill-opacity=".2" d="m139 210 1 2q1 3 5 5l-3-3-3-4m-4-6-2 4-2 8 1-4 3-8Z" data-rand=".3"/><path stroke="#000" stroke-width=".57015" stroke-linejoin="round" stroke-linecap="round" fill="none" d="m137 198 2-2h0l-1 1-7 8q-7 9-8 13v3-2q0 0 0 0h4l9 2q0 0 0 0t0 0h1v1l7-1 5-1-6-14-3-7-1-3-2 25-1-1q0 0 0 0v-9l1-13q0 0 0 0Z" data-rand=".3" stroke-opacity=".3"/></g><g class="f1"><path fill="#fff" d="m143 224-1-1h-5l-5-1-3 1h-3v-2h-1l1 2h-3v-3 3l-8-1 3 3q3 3 7 3h26v-5h-2v-1 1h-2v1h-4Z" data-rand=".2"/><path stroke="#000" stroke-width=".28665" stroke-linejoin="round" stroke-linecap="round" fill="none" d="M143 224h-8l-6-1m20 0q0 0 0 0t0 0m1 5v-4h-3m-24-1q0 0 0 0h0m3 0q0 0 0 0" data-rand=".9" stroke-opacity=".3"/><path stroke="#000" stroke-width=".57015" stroke-linejoin="round" stroke-linecap="round" fill="none" d="m142 223 1 1h4q0 0 0 0v-1h-5q0 0 0 0h-5l-5-1-1 1h-5v-1q0 0 0 0v-1q0 0 0 0h-1 1v2h-3v-1q0 0 0 0v-2 3l-8-1 3 3q3 3 7 3h26v-5h-2v-1q0 0 0 0h0v1h-2q0 0 0 0m-10-1h12m-26-1q0 0 0 0h3m-3 1h3m0 0h2l3 1m-5-2h3l8 1" data-rand=".6" stroke-opacity=".3"/></g><g class="f2"><path fill="#36bcbb" d="m118 225 1 1 31 1v-1h-18l-14-1Z" data-rand=".1"/><path stroke="#000" stroke-width=".57015" stroke-linejoin="round" stroke-linecap="round" fill="none" d="m118 225 1 1 31 1v-1h-18l-14-1q0 0 0 0Z" data-rand=".2" stroke-opacity=".3"/></g><g class="f4"><path fill="#909eab" d="M139 195h-1l-2 28h1l2-28Z" data-rand="0"/><path stroke="#000" stroke-width=".57015" stroke-linejoin="round" stroke-linecap="round" fill="none" d="m137 223 2-28q0 0 0 0h-1l-2 28h1Z" data-rand=".3" stroke-opacity=".3"/></g></g><g class="prop"><g class="f4"><path fill="#c17b59" d="M278 292v2h-3v2l2-1v1h4v-4l-1-3v6h-1v-3l-1-1v-2h-1l1 2v1Z" data-rand=".8"/><path stroke="#000" stroke-width=".377" stroke-linejoin="round" stroke-linecap="round" fill="none" d="M279 295h-2q0 0 0 0m2 0-2 1q0 0 0 0m0-2-2 1q0 0 0 0" data-rand=".3"/><path stroke="#000" stroke-width=".522" stroke-linejoin="round" stroke-linecap="round" fill="none" d="M276 294h-1v1q0 0 0 0t0 0v1l2-1q0 0 0 0v1q0 0 0 0t0 0h4q0 0 0 0v-3h0q0 0 0 0v-1h0l-1-3h0v3h0v1q0 0 0 0t0 0 0 0v2q0 0 0 0h0-1 0q0 0 0 0t0 0v-3h0q0 0 0 0l-1-1h0v-2h-1l1 2h0v1q0 0 0 0t0 0v2h-2Z" data-rand=".4"/></g><g class="f1"><path fill="#fff" d="M274 274h-2l-1 1-1 1 1 1h1v6q0 3 2 5l2 1 2 1h3l3-1 4 1 3-1h3l-1-1h-2l-2-1-2-1-1-1-2-2-4-1-2-1-2-2v-4l-2-1Z" data-rand=".3"/><path fill-opacity=".5" d="M278 281v1h-1l1 1h-1v1q-1 0 0 0v1h2l1 1h1l2 1h-1v1h6l1 1h2v1-1h3l-1-1h-2l-2-1-2-1-1-1-2-2-4-1-2-2v1Z" data-rand=".8"/><path fill-opacity=".9" d="M293 288h-2l-3-1h1-1v1h-1 1l1 1h2v1-1h3l-1-1Z" data-rand=".1"/><path fill-opacity=".2" d="M271 277h1v6q0 3 2 5l2 1 2 1h3l3-1 4 1 3-1h1-5l-2-1h-1v1h-2l-3-1h-2l-2-1-2-4v-4l1-1-1-1-1-1-2 1h1Z" data-rand=".1"/><path stroke="#000" stroke-width=".377" stroke-linejoin="round" stroke-linecap="round" fill="none" d="M279 290h0m2 0v-1h0" data-rand=".6"/><path stroke="#000" stroke-width=".522" stroke-linejoin="round" stroke-linecap="round" fill="none" d="m270 276 1-1 1-1h2l2 1v4l2 2 2 1 4 1 2 2 1 1 2 1 2 1h2l1 1h-3l-3 1-4-1-3 1q0 0 0 0h0-2q0 0 0 0t0 0h-1l-2-1-2-1q-2-2-2-5v-6h-1l-1-1q0 0 0 0Z" data-rand=".7"/></g><g class="f2"><path fill="#c17b59" d="M271 276h-2l-1 1h4q-1 0 0 0v-1h-1Z" data-rand=".3"/><path fill-opacity=".2" d="M272 277q-1 0 0 0v-1l-2 1h2Z" data-rand=".2"/><path fill-opacity=".9" d="m270 277-1-1-1 1h2Z" data-rand=".9"/><path stroke="#000" stroke-width=".522" stroke-linejoin="round" stroke-linecap="round" fill="none" d="M270 276h-1l-1 1h4q-1 0 0 0v-1h-2Z" data-rand=".2"/></g><g class="f3"><path d="M273 275v1h1v-1h-1Z" data-rand=".3"/><path fill="#fff" fill-opacity=".9" d="M273 275v1-1m0 0h1v1h-1 1v-1h-1Z" data-rand=".4"/><path fill="#fff" fill-opacity=".4" d="M273 275q1 0 0 0 0 1 0 0Z" data-rand=".9"/><path stroke="#000" stroke-width=".522" stroke-linejoin="round" stroke-linecap="round" fill="none" d="M273 275q0 0 0 0h1v1l-1-1Z" data-rand=".8"/></g></g><g class="prop"><g class="f4"><path fill="#c17b59" d="M49 299v2h2l1 1-1 1-1-1v1h-5l1-1v-6h1v6h1-1l1-1v-5h1v3Z" data-rand=".1"/><path stroke="#000" stroke-width="1.3" stroke-linejoin="round" stroke-linecap="round" fill="none" d="M4 8h-7l-1 1m9 0-7 1-2 1m3-5-8 2-1 1" data-rand=".5" transform="matrix(-.293 0 0 .29 48.664 299.685)"/><path stroke="#000" stroke-width="1.8" stroke-linejoin="round" stroke-linecap="round" fill="none" d="M-5 6h-5l-1 2 1 1h-1l2 1 5-1q0 0 0 0v2q0 0 0 0l1 1 7-1h3l3 1q2-1 1-2L9 9l1-7h0v-4h0L9-12l-3 1 1 9h0v2q0 0 0 0v9H6h0q0 0 0 0H5L4 8V7L2 6v-7h1v-3L2-5h0l-1-7-3 1 2 7h0l-1 1 1 1v8h-5Z" data-rand=".6" transform="matrix(-.293 0 0 .29 48.664 299.685)"/></g><g class="f1"><path fill="#fff" d="M52 281h2l2 1v2h-2l1 3v3q0 3-2 5l-2 1-2 1h-3l-4-1-4 1-3-1h-3l2-1h1l2-1 2-1 2-1 1-2 4-1 2-1 2-2v-2l1-2 1-1Z" data-rand=".3"/><path fill-opacity=".5" d="m49 288-1 1h1v1h1l-1 1h1l-1 1h-1l-1 1h-2l-2 1h1l1 1h-7l-1 1h-1l-1 1v-1h-3l2-1h1l2-1 2-1 2-1 1-2 4-1 3-2v1Z" data-rand=".5"/><path fill-opacity=".9" d="M34 295h1l3-1 1 1h-1l-1 1h-1l-1 1v-1h-3l2-1Z" data-rand=".5"/><path fill-opacity=".2" d="M56 284h-2l1 3v3q0 3-2 5l-2 1-2 1h-3l-4-1-4 1-3-1h4l2-1h1v1h3l3-1h2l1-1q2-1 2-4l1-2v-2h-1v-1l1-1 1-1 1 1Z" data-rand=".9"/><path stroke="#000" stroke-width="1.3" stroke-linejoin="round" stroke-linecap="round" fill="none" d="m-12 26 1 1m6 0v-1l1-1" data-rand=".7" transform="matrix(-.293 0 0 .29 44.357 288.882)"/><path stroke="#000" stroke-width="1.8" stroke-linejoin="round" stroke-linecap="round" fill="none" d="M-40-21v-1q2-4 5-5h8q4 1 5 4l1 8 1 6q2 3 7 5l7 3L7 5l5 5 6 4 6 4 6 2 6 2 5 3-10 1q1 2-10 1L7 26l-12 1q0 0 0 0h0l-2 1-3-1h-1q0 0 0 0h-3l-9-2q-4-2-6-5-7-7-7-15l1-13 1-7-6-3-1-1 1-2Z" data-rand=".9" transform="matrix(-.293 0 0 .29 44.357 288.882)"/></g><g class="f2"><path fill="#c17b59" d="M55 283h2l2 1h-5 1l-1-1h1Z" data-rand=".8"/><path fill-opacity=".2" d="M54 284h1v-1l1 1h-2Z" data-rand=".5"/><path fill-opacity=".9" d="M57 284v-1l2 1h-2Z" data-rand=".6"/><path stroke="#000" stroke-width="1.8" stroke-linejoin="round" stroke-linecap="round" fill="none" d="m1-3-4 1q-4 2-4 4l4 1H7Q4 1 5 0l2-2-6-1Z" data-rand=".6" transform="matrix(-.293 0 0 .29 56.473 283.546)"/></g><g class="f3"><path d="M53 282h1l-1 1-1-1h1Z" data-rand=".8"/><path fill="#fff" fill-opacity=".9" d="m54 282-1 1 1-1m-1 0v1l-1-1h1Z" data-rand=".6"/><path fill="#fff" fill-opacity=".4" d="M53 282q0 1 0 0Z" data-rand=".9"/><path stroke="#000" stroke-width="1.8" stroke-linejoin="round" stroke-linecap="round" fill="none" d="M-2 0v-1q2-2 4 1L1 1Q0 2-2 0Z" data-rand=".8" transform="matrix(-.293 0 0 .29 52.942 282.459)"/></g></g></svg>