<svg xmlns="http://www.w3.org/2000/svg" xmlns:xlink="http://www.w3.org/1999/xlink" width="300" height="300"><defs><linearGradient id="a" x1="0%" y1="100%" x2="0%" y2="0%"><stop offset="0%" style="stop-color:#a2d8f4;stop-opacity:1"/><stop offset="100%" style="stop-color:#47b1e9;stop-opacity:1"/></linearGradient></defs><rect width="300" height="300" fill="url(#a)"/><g class="prop" opacity=".8"><g class="f1"><path fill="#fff" d="m204 125-2 1v1l-1 2h-4l-2 1-1 1v3l1 3-4-1h-4q-5 0-5 4l-2 1v2l4 1 2 1h2l1 1 1 1 2 1 2-1 1-1 1-1h2l1 1 1 2 4 3h5l3-1 3 1 2 1 2 1 1-2 2-1h1l1 1h3l3-1 1-1v-2l1-2 3 1 3 2 2 1 3 1h6l2-1 2-2 1-2 2-1h2l2 1 3-1 1-1v-2l-1-3-2-1h-6l-2-1-2-1-1-1h-3l-2 1h-5l-2 1v-4l-1-3-4-1-4 1q-1-2-3-2l-4 1v-2l-2-3-1-1-1-2-4-1h-4l-4 2v4h-2Z" data-rand=".1"/><path fill-opacity=".2" d="m195 135-1-2-1-1 1 2 1 3-4-1h-4q-5 0-5 4l-2 1v2l4 1 2 1h2l1 1 1 1 2 1 2-1 1-1 1-1h2l2 3 4 3h5l2-1h1l3 1 1 1h1l2 1 1-2 2-1h1l1 1h3l3-1 1-1v-2l1-2 3 1 3 2 2 1 3 1h6l2-1 2-2 1-2 2-1 4 1 3-1 1-1v-4l-2 1h-3l-3 1-2-1-1-1-5-1-4 1 2 1h2l3 1-3 1-4 1-1-1h-1l-1-1h-5l-1-1h-2l-1 1-3-2v-1l-1-1h-2v1h-3l2 2 1 3-1 3-2 1-4 1-3-1v-2l2-1h-2l-1-3 2-2 2-2-5-2-4-2-2 1h-2l2 2 1 2v3l-1 1-2 1-2-2h-1v-1h-3l-5 2-4 1q-2 0-2-2t3-3h7l3-1-1-2h-6Z" data-rand=".8"/><path stroke="#000" stroke-width=".4576" stroke-miterlimit="3" fill="none" d="M200 147q1 3 4 4h6l1-1h4l2 2h2l1-1 2-1h3l3 1 2-1 1-2v-2l2-2 2 2 3 1 3 2 2 1h6l2-1 2-3 2-2h8l1-2v-4l-2-1h-6l-3-1-1-2-2-1-3 1-2 1h-7v-3l-1-3q-1-2-3-2l-4 2q-1-2-4-2l-3 1-1-3-1-2-1-2-2-1q-1-2-3-2l-5 1q-3 0-4 2-1 1 1 3l-3 1h-2v3l-2 1h-4l-2 2v3l1 2h-8q-5 0-5 4h-2l1 3 3 1h2l2 1 1 1h1l2 1 3-1v-1l1-1h3v2l1 1Z" data-rand=".5" stroke-opacity="0"/><path stroke="#000" stroke-width=".2288" stroke-miterlimit="3" fill="none" d="m230 129-2 2v2l-3-1h-3l-1 2v1m-21-6 2 1 1 2 2-1h2" data-rand=".4" stroke-opacity="0"/></g></g><g class="prop" opacity=".8"><g class="f1"><path fill="#fff" d="m96 95 2 1 1 1v2l2 1h4l2 1v3l-1 3h4l4-1q5 1 5 5l2 1v2l-4 1-2 1h-2l-1 1-1 1-2 1-3-1v-1l-1-1q-2-2-3 0v1l-1 2-4 3q-3 2-6 0l-3-1-3 1-2 2h-2l-2-1-1-2h-1l-2 1h-3q-2 1-3-1v-1l-1-2-1-2-3 1-3 2-3 1-3 1-5 1-3-2-2-2-1-2-2-1h-7l-1-1v-5l2-1h7l2-1 2-2 2-1 3 1 2 1h2l2-1 3 1v-3l1-3q1-2 4-2l4 2 3-3 4 2 1-3 1-3 1-2 2-1q1-2 4-2l4 1 4 2v4h2Z" data-rand=".4"/><path fill-opacity=".2" d="m105 105 2-1v-2 3l-1 2h4l4-1q5 1 5 5l2 1v2l-4 1-2 1h-2l-1 1-1 1-2 1-3-1v-1l-1-1q-2-2-3 0l-1 3-4 3q-3 2-6 0h-2l-1-1-3 1-1 1-1 1h-2l-2-1-1-2h-1l-2 1h-3q-2 1-3-1v-1l-1-2-1-2-3 1-3 2-3 1-3 1-5 1-3-2-2-2-1-2-2-1h-7l-1-1v-4h1l2 1h7l1-1 5-1 4 1h-3l-4 2 4 1h5l1-1 1-1 1 1h4l1-1h4l2-1 1-1 1-1h2l1 1h1l-2 2-1 3 1 3 2 2h4l4-1v-2l-2-1 2-1 1-2-2-3-2-2 5-1 4-3 2 2h2l-2 2-1 2v3l1 1h2l2-1 1-1h4l4 2 5 1q2 0 2-2 0-3-3-3h-7l-4-1 1-2h3l3-1Z" data-rand=".6"/><path stroke="#000" stroke-width=".46459999999999996" stroke-miterlimit="3" fill="none" d="M101 118q-1 3-5 4h-6l-1-1h-1q-1-1-3 1l-2 1-3 1-1-2-1-1h-3l-4 1-2-1-1-2v-2l-2-2-2 2-3 1-3 2-3 1h-6l-2-1-2-3-2-2-2-1-2 1h-4l-2-2v-1l1-3 2-1h6l3-1 1-2 2-1h3l2 1h5l2 1v-4l1-3q2-2 4-1l4 1 4-2 4 1v-3l2-2 1-2 1-2 4-1h5l4 3v3l2 1h2v2l1 1 2 1h4l2 2v3l-1 3 3-1h5q5 0 5 5h2v2q-1 2-4 2h-2l-2 1-1 1h-1l-2 1-3-1-1-1-1-1h-2l-1 2v1Z" data-rand=".4" stroke-opacity="0"/><path stroke="#000" stroke-width=".22999999999999998" stroke-miterlimit="3" fill="none" d="M69 99q2 1 2 3l1 2 2-2 3 1 1 1v2m23-7-2 1-1 2-2-1h-3" data-rand=".2" stroke-opacity="0"/></g></g><g class="prop"><g class="f1"><path fill="#a2d8f4" d="M411 298v-91h-522v91h522Z" data-rand=".5"/><path fill="#fff" fill-opacity=".4" d="m216 257 7 1-17-4h-10l-4 1h-2l3 1h12l11 1m95 19h9l-15-2-13-2h-7l-10 2q-6 1 3 1h15l18 1m60-18-14-1-7-1q12 4 24 4 7 0 11-2h-14m-451-3 7 1-8-2h-10l-6 1h17m183 12h-8l-8 2-8 1h8l8-1q9-2 15 0l-7-2m40 18-13-2-9 2-5 1 4-1h7l25 2-9-2m241-74 13-1h9l5-1v-2h-522v3h36l7 1-14 2h23l8-1 7-1 27-2 5 1 7 1h23l-16 2h8l14-1 7-1 7-1h21l25 1-4 1 6 1 13-1 13-1 11-1 20 1h16l-8 1 31-1-12-2 10 1 15 1 25-1 26-1 9 2h11l12-2h15l26 1h52l13 1Z" data-rand=".3"/><path fill-opacity=".2" d="m-77 255-6-2h-9l-4 1h-6 22l3 1m38 9 4 1h7l8-1-6-1h-5l-5-1h-10l-4 2-7 1q-4 0-7-2h-8l-7 2h14l10 4h-11l-11 3h18l6 1 19 1-4-1-3-1-5-2h-2l-2-1-2-1-2-2 6-1 5-1h4m24-10-6-1q-2-1-7 1l-6 2 5-1 6-1 14 2-6-2m58 6-4-1-5-1-11 1-7 1h-3 30m66 4h13l-14-2h-5l-6 1-13 1-5 1h14l-10 3 13-2 3-2 4-1h3l3 1m97-4-6-1-6-1-7 1-5 1h13l21 1-10-1m79 1 2 1 5 2 15-2h-19l-3-1m86 1h7l-19-3-7-1-9-1-9 1-8 1q-3 1 5 1h9l-9 1-9 1q-7 1-3 1l13-1 11 1h7q4 0 2-1l-5-2q-3-1-1-1 1-1 8 1l8 2h9m34 18 5-1q-7-2-19-1l-19 2q17 2 26 7-18 2-44 2l8-3 9-1-10-2h-10l-9-1-8-1q4-2 11-2h11q-7-3-16-4l-17-1 4-2 5-1-21-1q-12 0-21 2l18 2 18 2-10 1-9 1 15 2 14 5-12 1h-12l-4 1h-16q9-4 16-5-3-2-12-1l-6 1h-16q-5 0-9 2h7l7 3-8 2-8-1-9-2q-6-2-9-1 6-3 14-3h-23q-14 1-23 5l14 3 15 1q-14 2-30 1l-15-1-15-1q10-4 19-4-6-3-18-3h-19q2-2 7-3h9q-12-4-25-4-15-1-24 3 5 2 12 2h12l-4 1-4 3h5-18q-12-1-18 1l7 1h7l5 2 5 1h-10l-11 1-11-2-11-1 4 2 5 2-17-1H72l9-3q7-1 10-3l-10 1-10 1h-9l-9 1q-6 2-17 2l-17-2q10-4 18-5h9l9-1-14-2-15-2-14 1-13 1 8 2h8l-16 2-15 2-12-1h-12l9 1 7 3-11 1-11-2-12-1h-12l20-2h-33l-7-1h-6q-9 0-15 2v12h522v-15l-5-1h-5l4-2m-5-13h-1l-5-2q-9-1-19 2h25m-246-16h-5l-5 1h-5l-7 1h18l-3 2h-14l-15 1 5 1h9q10-1 20 1h9l4-1q1-1-5-2l-6-1h10l9 1h6l-3-1-7-1-8-1-7-1m224-11h5l5 1-6-1h-16q-3 1 4 1l8-1m-112 9-5 1h16l16 1-11-2h-16m-32-3h20l-8-1h-4l-3-1-5 2m-5 0h5-5m-45-1h17l-5-1-14 1h2m-75-4h8l-5-2-10 1 7 1m-55 9h-1 7l5 1-5-1h-6m-36-9-4 1h13l-5-1h-4Z" data-rand=".8"/><path stroke="#536e7c" stroke-opacity="0" stroke-width=".216" stroke-linejoin="round" stroke-linecap="round" fill="none" d="M327 249h14m11 22h9l9 1h9l9 1m-83-14h7l8-1m-92 16h20m-93-1 26 2 26 3m56-16h13m-328-11h21m-74 27 6-1h6l7 1h7m118 0 19 1 18 1m-109 3h12" data-rand=".7"/></g></g><g class="prop"><g class="f1"><path fill="#a2d8f4" d="m99 243 2-1 2 1h4l3-1 4 1 5 1 2-1 3-1h2l1 1h4v-19h-293v20h1l1 1 2 1 2-1 1-1 2 1 1 2h10l1-2 1-1h2l1 1 3-1 2-2 3-1 3 1 7 1 2-1h7l2 1 2 1 1 1 4 2 4-1 1-1h5v-1l1-1h2l2 1 2-1h3l2 1h3l2-1h2l2 1 3 1 3 1h8l5 2 5 1h5l6-2h3l2-2h4l3 1 3-1 3-1 2 1h3l1-1h6v1h5l4-1h13l3-1 2-1h8l2-1h3l4 1 4 1 2 3 2 2 5 1h6l4 1h3l3-1 1-2 1-1 2-1 3 1 3 1 3-1 2-1 4-1h5l3 1 2-1 2-1m-41-2h-2 2Z" data-rand=".1"/><path fill="#fff" fill-opacity=".9" d="m-9 236-4 1-3 1-7 2-4-1-5-1-2 1-3 1h-4l-4-1h-4l-3 1h-9l-4-2-4-1-4 1-5 1h-8l-3-1-4-1-7 1-2 1-1-1h-3l-3 1-2-1-2-1h-2l-2 1-3 1h-17l-2-1h-2l-2 1-2 1h-3l-4-2-3-1-3 1-1 1-1 1h-2v4h1l1 1 2 1 2-1 1-1 2 1 1 2h10l1-2 1-1h2l1 1 3-1 2-2 3-1 3 1 7 1 2-1h7l2 1 2 1 1 1 4 2 4-1 1-1h5v-1l1-1h2l2 1 2-1h3l2 1h3l2-1h2l2 1 3 1 3 1h8l5 2 5 1h5l6-2h3l2-2h4l3 1 3-1 3-1 2 1h3l1-1h6v1h5l4-1h13l3-1 2-1h8l2-1h3l4 1 4 1 2 3 2 2 5 1h6l4 1h3l3-1 1-2 1-1 2-1 3 1 3 1 3-1 2-1 4-1h5l3 1 2-1 2-1 2-1 2 1h4l3-1 4 1 5 1 2-1 3-1h2l1 1h4v-4l-1-1-2-1-1 1h-8l-6-1h-13l-6 1-5 1H79l-4 1-4 1-3-1-3-1q-1-1-4 1l-3 1-4-1-1-1-2-1h-9l-4-2-4-1-4 1-4 2h-4l-3 1h-3l-3-1-4-1H4l-5 1-4-2h-4Z" data-rand=".9"/><path fill="#fff" fill-opacity=".4" d="m-147 228-2-1-4 1h7-1m111-1h9l4 1h4l-4-1h-3l-4-1-6 1m-12 4-4 1h19-1l-2-1h-12m-18-2 6 1h10l-12-1-3-1h-7l-5 1h11m-18 1-2 1 17 1-2-1h-4l-3-1h-6m4-4 4 1-3-1h-2 1m-15 8-2-1h-6l8 1m-4-7h8l-6-1-2 1m-16 1h9l-5-1-4 1m-15 7h6l-4-1h-10l3 1h5m4-7-5-1h-2l7 1m215 5h2l3-1h5-4l-6 1m-14-6q-1 1 3 1h3l-4-1h-2m-11 0-3 1h6l-3-1m-7 5H47l-5 1h19l-4-1m-9-6h-1 2l4 1-3-1h-2m-35 3H8l-2 1h8l4-1 6 1-2-1h-9m-23 0-5 1h-2l-2 1 8-1 7 1-6-2m4-3h3-5 2m111 2-2-1-2 1h-3l7 1h15l-12-1h-3Z" data-rand=".4"/><path fill-opacity=".1" d="m-118 243 1-1-6-1h-1l-1-1h-5l-4 1h-2l-1 1h-1l-1-1h-2l-2 1q1 2-1 3h-5l-2-2-2-2h-2l-2 1-1 1-2-1h-2v2h1l1 1 2 1 2-1 1-1 2 1 1 2h10l1-2 1-1h2l1 1 3-1 2-2 3-1 3 1 7 1h1m119 1-1-2-2 1h-2l-2-1-1-2h-4l-1 2-1 1h-5l-2 1-1 1-3-1-2-1h-3l-3 1-2-1-3-1v4l-3-1-4-1q3 2 2 3h-8v-2l-2-1h-2q2 2 0 2h-3l-3-2-3-2v2l1 1h-3l-2-1-1-2-1-1h-5q0 2-3 2h-2l-1-1h-3l-3-1v1h-4q-3 0-3-2l-4 1v1l1 1q0 2-3 2-2 1-4-1-2-1-2-3h-3l-3-1-2-1h-2l1 2-1 1h5l2 1 2 1 1 1 4 2 4-1 1-1h5v-1l1-1h2l2 1 2-1h3l2 1h3l2-1h2l2 1 3 1 3 1h8l5 2 5 1h5l6-2h3l2-2h4l3 1 3-1 3-1 2 1h3l1-1h6v1h4l2-1m16 0h2l-5-1-6-1-2 1-3 1h14m114-1v-2h-9l-3 1q-3 0-3-2h-6l-6 1-6 1-6-2-3 3h-8l-4 1-4-1h-7l-2 2 1 2-2 1h-1l-1-1v1h-1l-7-1q-4 0-5-2l-1-2-2-1h-3v-2l-4-1h-6l-3 1h-4l-2 1-2 1h9l2-1h3l4 1 4 1 2 3 2 2 5 1h6l4 1h3l3-1 1-2 1-1 2-1 3 1 3 1 3-1 2-1 4-1h5l3 1 2-1 2-1 2-1 2 1h4l3-1 4 1 5 1 2-1 3-1h2l1 1h4Z" data-rand=".1"/><path stroke="#000" stroke-width=".162" stroke-linejoin="round" stroke-linecap="round" fill="none" d="M-162 244h1l1 1 2 1 2-1 1-1 2 1 1 2h10l1-2 1-1h2l1 1 3-1 2-2 3-1 3 1 7 1 2-1h7l2 1 2 1 1 1 4 2 4-1 1-1h5v-1l1-1h2l2 1 2-1h3l2 1h3l2-1h2l2 1 3 1 3 1h8l5 2 5 1h5l6-2h3l2-2h4l3 1 3-1 3-1 2 1h3l1-1h6v1h5l4-1h13l3-1 2-1h8l2-1h3l4 1 4 1 2 3 2 2 5 1h6l4 1h3l3-1 1-2 1-1 2-1 3 1 3 1 3-1 2-1 4-1h5l3 1 2-1 2-1 2-1 2 1h4l3-1 4 1 5 1 2-1 3-1h2l1 1h4" data-rand=".6" stroke-opacity="0"/><path stroke="#000" stroke-width=".054" stroke-linejoin="round" stroke-linecap="round" fill="none" d="M131 239q0 0 0 0l-1-1-2-1-1 1h-8l-6-1h-13l-6 1-5 1H79l-4 1-4 1-3-1-3-1q-1-1-4 1l-3 1-4-1-1-1-2-1h-9l-4-2-4-1-4 1-4 2h-4l-3 1h-3l-3-1-4-1H4l-5 1-4-2h-4l-4 1-3 1-7 2-4-1-5-1-2 1-3 1h-4l-4-1h-4l-3 1h-9l-4-2-4-1-4 1-5 1h-8l-3-1-4-1-7 1-2 1-1-1h-3l-3 1-2-1-2-1h-2l-2 1-3 1h-17l-2-1h-2l-2 1-2 1h-3l-4-2-3-1-3 1-1 1-1 1h-2v1" data-rand="0" stroke-opacity="0"/></g></g><g class="prop"><g class="f1"><path fill="#a2d8f4" d="m394 241 2-1 2 1h4l3-1 4 1 5 1 2-1 3-1h2l1 1h4v-19H133v20h1l1 1 2 1 2-1 1-1 2 1 1 2h10l1-2 1-1h2l1 1 3-1 2-2 3-1 3 1 7 1 2-1h7l2 1 2 1 1 1 4 2 4-1 1-1h5v-1l1-1h2l2 1 2-1h3l2 1h3l2-1h2l2 1 3 1 3 1h8l5 2 5 1h5l6-2h3l2-2h4l3 1 3-1 3-1 2 1h3l1-1h6v1h5l4-1h13l3-1 2-1h8l2-1h3l4 1 4 1 2 3 2 2 5 1h6l4 1h3l3-1 1-2 1-1 2-1 3 1 3 1 3-1 2-1 4-1h5l3 1 2-1 2-1m-41-2h-2 2Z" data-rand=".8"/><path fill="#fff" fill-opacity=".9" d="m286 234-4 1-3 1-7 2-4-1-5-1-2 1-3 1h-4l-4-1h-4l-3 1h-9l-4-2-4-1-4 1-5 1h-8l-3-1-4-1-7 1-2 1-1-1h-3l-3 1-2-1-2-1h-2l-2 1-3 1h-17l-2-1h-2l-2 1-2 1h-3l-4-2-3-1-3 1-1 1-1 1h-2v4h1l1 1 2 1 2-1 1-1 2 1 1 2h10l1-2 1-1h2l1 1 3-1 2-2 3-1 3 1 7 1 2-1h7l2 1 2 1 1 1 4 2 4-1 1-1h5v-1l1-1h2l2 1 2-1h3l2 1h3l2-1h2l2 1 3 1 3 1h8l5 2 5 1h5l6-2h3l2-2h4l3 1 3-1 3-1 2 1h3l1-1h6v1h5l4-1h13l3-1 2-1h8l2-1h3l4 1 4 1 2 3 2 2 5 1h6l4 1h3l3-1 1-2 1-1 2-1 3 1 3 1 3-1 2-1 4-1h5l3 1 2-1 2-1 2-1 2 1h4l3-1 4 1 5 1 2-1 3-1h2l1 1h4v-4l-1-1-2-1-1 1h-8l-6-1h-13l-6 1-5 1h-10l-4 1-4 1-3-1-3-1q-1-1-4 1l-3 1-4-1-1-1-2-1h-9l-4-2-4-1-4 1-4 2h-4l-3 1h-3l-3-1-4-1h-5l-5 1-4-2h-4Z" data-rand=".7"/><path fill-opacity=".2" d="m153 228-3 1q-2 0 0 0h6l-3-1m96-2h-2 8l-4-1-2 1Z" data-rand=".2"/><path fill="#fff" fill-opacity=".4" d="m148 226-2-1-4 1h7-1m111-1h9l4 1h4l-4-1h-3l-4-1-6 1m-12 4-4 1h19-1l-2-1h-12m-18-2 6 1h10l-12-1-3-1h-7l-5 1h11m-18 1-2 1 17 1-2-1h-4l-3-1h-6m4-4 4 1-3-1h-2 1m-15 8-2-1h-6l8 1m-4-7h8l-6-1-2 1m-16 1h9l-5-1-4 1m-15 7h6l-4-1h-10l3 1h5m4-7-5-1h-2l7 1m215 5h2l3-1h5-4l-6 1m-14-6q-1 1 3 1h3l-4-1h-2m-11 0-3 1h6l-3-1m-7 5h-10l-5 1h19l-4-1m-9-6h-1 2l4 1-3-1h-2m-35 3h-5l-2 1h8l4-1 6 1-2-1h-9m-23 0-5 1h-2l-2 1 8-1 7 1-6-2m4-3h3-5 2m111 2-2-1-2 1h-3l7 1h15l-12-1h-3Z" data-rand=".8"/><path fill-opacity=".1" d="m177 241 1-1-6-1h-1l-1-1h-5l-4 1h-2l-1 1h-1l-1-1h-2l-2 1q1 2-1 3h-5l-2-2-2-2h-2l-2 1-1 1-2-1h-2v2h1l1 1 2 1 2-1 1-1 2 1 1 2h10l1-2 1-1h2l1 1 3-1 2-2 3-1 3 1 7 1h1m119 1-1-2-2 1h-2l-2-1-1-2h-4l-1 2-1 1h-5l-2 1-1 1-3-1-2-1h-3l-3 1-2-1-3-1v4l-3-1-4-1q3 2 2 3h-8v-2l-2-1h-2q2 2 0 2h-3l-3-2-3-2v2l1 1h-3l-2-1-1-2-1-1h-5q0 2-3 2h-2l-1-1h-3l-3-1v1h-4q-3 0-3-2l-4 1v1l1 1q0 2-3 2-2 1-4-1-2-1-2-3h-3l-3-1-2-1h-2l1 2-1 1h5l2 1 2 1 1 1 4 2 4-1 1-1h5v-1l1-1h2l2 1 2-1h3l2 1h3l2-1h2l2 1 3 1 3 1h8l5 2 5 1h5l6-2h3l2-2h4l3 1 3-1 3-1 2 1h3l1-1h6v1h4l2-1m16 0h2l-5-1-6-1-2 1-3 1h14m114-1v-2h-9l-3 1q-3 0-3-2h-6l-6 1-6 1-6-2-3 3h-8l-4 1-4-1h-7l-2 2 1 2-2 1h-1l-1-1v1h-1l-7-1q-4 0-5-2l-1-2-2-1h-3v-2l-4-1h-6l-3 1h-4l-2 1-2 1h9l2-1h3l4 1 4 1 2 3 2 2 5 1h6l4 1h3l3-1 1-2 1-1 2-1 3 1 3 1 3-1 2-1 4-1h5l3 1 2-1 2-1 2-1 2 1h4l3-1 4 1 5 1 2-1 3-1h2l1 1h4Z" data-rand=".6"/><path stroke="#000" stroke-width=".162" stroke-linejoin="round" stroke-linecap="round" fill="none" d="M133 242h1l1 1 2 1 2-1 1-1 2 1 1 2h10l1-2 1-1h2l1 1 3-1 2-2 3-1 3 1 7 1 2-1h7l2 1 2 1 1 1 4 2 4-1 1-1h5v-1l1-1h2l2 1 2-1h3l2 1h3l2-1h2l2 1 3 1 3 1h8l5 2 5 1h5l6-2h3l2-2h4l3 1 3-1 3-1 2 1h3l1-1h6v1h5l4-1h13l3-1 2-1h8l2-1h3l4 1 4 1 2 3 2 2 5 1h6l4 1h3l3-1 1-2 1-1 2-1 3 1 3 1 3-1 2-1 4-1h5l3 1 2-1 2-1 2-1 2 1h4l3-1 4 1 5 1 2-1 3-1h2l1 1h4" data-rand="1" stroke-opacity="0"/><path stroke="#000" stroke-width=".054" stroke-linejoin="round" stroke-linecap="round" fill="none" d="M426 237q0 0 0 0l-1-1-2-1-1 1h-8l-6-1h-13l-6 1-5 1h-10l-4 1-4 1-3-1-3-1q-1-1-4 1l-3 1-4-1-1-1-2-1h-9l-4-2-4-1-4 1-4 2h-4l-3 1h-3l-3-1-4-1h-5l-5 1-4-2h-4l-4 1-3 1-7 2-4-1-5-1-2 1-3 1h-4l-4-1h-4l-3 1h-9l-4-2-4-1-4 1-5 1h-8l-3-1-4-1-7 1-2 1-1-1h-3l-3 1-2-1-2-1h-2l-2 1-3 1h-17l-2-1h-2l-2 1-2 1h-3l-4-2-3-1-3 1-1 1-1 1h-2v1" data-rand=".1" stroke-opacity="0"/></g></g><g class="prop"><g class="f1"><path fill="#f3e6c6" d="m269 189 7-2 7-2 23-5 25-5 30-5 28-5 5-1 6-2 34-6 41 107-19-2-11-4-15-6-10-2-8-2-8-2-11-5q-4-3-15-6l-19-4-20-1-12 1-10-1-13-3-15-4-14-2h-16l-16-1-10-1-7-2-6-2-8-2-7-3-1-3 8-4 10-4 20-4 27-5Z" data-rand="1"/><path fill-opacity=".2" d="M426 219h1l11 4 21 3h2l14 37h-5l-23-5-3-2-3-7-3-6-5-7-4-6-9-14 4 2h2v1m-37 12h5l6-1 8-1 9-1 2 12 8 10-10-2-5-1-8-2-11-5-7-3-11-4 8-5 6-8v11m-126-19h12l29-7 3 2-4 4 18-3 15-1-15 10v4l19 2 14 5 9 3-4-1-20-1-12 1-10-1-13-3-15-4-14-2h-16l-16-1-10-1-7-2-3-1 18 2 22-5Z" data-rand=".9"/><path fill-opacity=".2" d="m269 198 6-1 8 5h10l12 1 28-3 9 4-21 13h40l14 1 14 1 7-3 9-3 14-2 11-2-4 2-6 3q-2 1 2 3l4 2 35 7 14 37-19-2-26-10-10-2-8-2-8-2-11-5q-4-3-15-6l-19-4-20-1-12 1-10-1-13-3-15-4-14-2h-16l-16-1-10-1-7-2-6-2-8-2 7-1 25-9 9-2 8-1 8-1Z" data-rand="0"/><path fill="#fff" fill-opacity=".4" d="m367 197 23-5-30 10-7 2-10 3-12 5-8 4 19-12 12-3 13-4m-98-8 7-2 7-2 23-5 25-5 30-5 28-5 5-1 6-2 18-3 16-3 2 6-5 1-13 3-10 1-8 3-5 2 9 3 12 4 16 7-11-2-12-2-3-1-5-1-13-3-17 1-13 1-17 6h-7l-8-2-17 3-14 2-14 4 15 2-10 1-6-1h-8l-15 1-14 1-16 2-9 1 4-1 20-4 27-5Z" data-rand=".9"/><path stroke="#7c7565" stroke-opacity=".3" stroke-width=".9" stroke-linejoin="round" stroke-linecap="round" fill="none" d="M220-258q-1 13 4 28l11 26m-42-36q7 1 11 6t5 12m69-46v25m-795 85q1 11 7 21m389-46v31q-1 21-3 31m-94 180q0 8-4 23-3 15-3 23m-196-71q-3 8-2 24 3 19 2 24m-13 34q-5 10-10 26l-8 27m-58-181q0 21 4 74 2 49-6 73" data-rand=".6" transform="matrix(-.2049 .075 .075 .2 339 234)"/><path stroke="#000" stroke-width="1.6" stroke-linejoin="round" stroke-linecap="round" fill="none" d="M-89-210h-1 2l28-14 37-20q7-4 74-16l66-11 64-7-62 34 44-14 27-11 34-14 66-20 60-19 72-16 40-8M120-243l12 21q8 15 8 23m-673 40 25-5 59-9q39-6 47-9 9-3 36-3l27 1-36 31q-4 5-25 21l-20 16-57 55q86-53 93-55l11-8 21-16q31-24 48-31 18-7 77-25l54-16 83 2q-4 9-4 20l1 20 1 21q0 12-4 23m-381 65q11 27 11 30l3 49-10 58m161-236 26 58 227-25m-469 283 56-33 13-7 30-18q44-29 52-45m-2 20-17 48q-10 28-13 48l-9 45-10 44" data-rand=".1" stroke-opacity=".3" transform="matrix(-.2049 .075 .075 .2 339 234)"/><path stroke="#000" stroke-width="3.1" stroke-linejoin="round" stroke-linecap="round" fill="none" d="m-532-192 154-26 30-3 23-1 127-24q125-24 139-28 13-4 113-17l106-14 36-2 34-2 122-25 90-12q8-1 51 1l43 2-2 19q-16 18-24 24l-30 21-25 17q-3 4-26 19l-39 24q-12 7-70 28l-68 25-55 35q-42 28-57 40-13 9-56 33L43-36-9-19Q-67 1-93 15q-33 18-74 48-41 31-54 48-11 15-42 42l-29 24-30 17q-33 19-43 27l-53 49-40 38-77 38 3-538Z" data-rand=".7" stroke-opacity=".3" transform="matrix(-.2049 .075 .075 .2 339 234)"/></g></g><g class="prop"><g class="f2"><path fill="#808078" d="m253 154-3-8-5-8-5-7-1-2-2-2v3l5 10q7 11 9 19l6 19 3 11-2 2-1 1h7l2-1 3-2-3-1h2l-1-1-2-3-5-13-2-7-2-3-3-7Z" data-rand=".8"/><path stroke="#41413d" stroke-opacity=".3" stroke-width=".15668" stroke-linejoin="round" stroke-linecap="round" fill="none" d="M243 138h1m1 6h1m-2-3 1-1m2 8 2-1m0 2q0 0 0 0l1-1m1 9h1q0 0 0 0m2 4q0 0 0 0l1-1m1 9 2-1m-1 4 3-1m-1 8h2m-2-3h2m0 8h1l1-1m-5-1h1l1-1m0 7q0 0 0 0l1-1m3 0 1 1 1 1m-16-39h1m3 17h2m-3-8q0 0 0 0t0 0" data-rand=".7"/><path stroke="#000" stroke-width=".5327120000000001" stroke-linejoin="round" stroke-linecap="round" fill="none" d="m237 130 5 10q7 11 9 19l6 19 3 11-2 2-1 1h7l2-1 3-2-3-1h2l-1-1-2-3-5-13-2-7-2-3-3-7-3-8-5-8-5-7-1-2-2-2v3Z" data-rand=".1" stroke-opacity=".3"/></g><g class="f1"><path fill="#234d1b" d="M245 107h-1l-2 2v2l-1-1 1-2 1-2-1 1-2 3v1-3l1-2-1 1-1 3v2-5l-1 1v3l-1 2v-3l-1-2v8-1l-2-4-1-1h-1q2 2 2 5l1 2h-1l-3-4h-1l-1-1h-1 1l3 4 2 2h-1l-1-1v-1l-1-1v1l-1-1h-1l-2-1 1 1 1 1h1v2h-1v-2l-2-2v1l1 1v2-1l-1-1-1-1-1-1h1v4-2l-1-1-1-1v1l1 2-1-2-2-1 1 1v2-1l-1-1v-1h-1l1 1v1l-1-1-1-1v1l1 1-1-1-1-1v2-1l-2-1 1 2-1-1-1-1 1 1v1h-2l-1 1 2-1h1l-1 1h-1 3-1l-1 1 2-1h1l-1 1-1 1 2-1 1-1-1 2-1 1 2-1 1-1-1 1-1 1-2 1-1 1-2 1-1 1h1l1-1v1l-1 1 1-2 1-1v3l2-3v3l1-2 1-1v-1 1h1v-1l-1 2v2l1-2v-1l1-1v2l-1 2 1-2 1-1v3l1-2 2-1-1 1-1 1 3-2 2-1h1-1v1h-1l-2 2-2 2 3-2h3q-2 0-3 2h-1l-2 2q-7 3-8 9l-1 1 1-2 2-2v4-2l2-3v-1 5l1-3 1-3 1-1v2l1 4v-6 2l2 3v1-6l1-1v4l1 1v1-5h1v2l-1 3 1-3h1v2l1 4v-2l1-1 1-3-1 3 1 4v-3l1-2v4l1-1v-2l1-2v4l2 3v-4l1 4 2 3v-4l-1-3 1 2 1 1-1-3-2-3 3 1 2 2-3-3-2-1h3l1 1h1l-3-2-3-1h3l4 1-4-2-3-2 3 1 4 1-2-1-1-2-1-1h2l-2-1h-1v-1h-1 1l1-1 1 1 2 2-1-2-1-1-1-1h-1q2-1 4 1l2 1-1-2-1-1-1-1h-1l4 2 2 1-1-2-2-1-1-1h-1 4l3 1-3-2h-1 4l2 1-2-2h-1l-1-1h5v1q-5-3-10 0l-2-1h-2 5l-1-1h-2l4-1h-1l-1-1h3l-1-1-1 1 1-1h1-4l2-1 2-1-2 1 2-2h1-1l-2 1-1 1 1-2 1-1m-4 9h1l-1 1h-3l3-1m-4 3v1h-2l2-1m1 4v1h-2l2-1m1 2h1l1 1-4-1h2m0-7h-3 3l1-1-1 1m-11 0v1-1m3-1 1 1v1h-1v-2l-1-1 1 1m-10 2 1-1h1l-2 2h-1l1-1m3-1v1h-1 1v-1m6 11v-1 1m0 2 1-1v2l-1-1Z" data-rand=".8"/><path fill-opacity=".2" d="M228 131v1l-1 1 1 1v1-4m2 2v-1h1l-1-1v2m-1-2 1-1v-1l-1 1v1m-3-5-2 2q-7 3-8 9l-1 1 1-2 2-2v4-2l2-3v-1 5l1-3 1-3 1-1v2l1 4v-6 2l2 3v1-6l1-1v3l1-3 2-4-2 2-2 2v-3m14-3h-2v1h3-1v-1m0 2 1 1h1l-1-1h-1m3-9h-1l-1 1h-1l-1 1-2 1v1h-1v1h3l1-1-3 3h-1 1l1-1h4-1l1 1 2 2-1-2-1-1-1-1h-1q2-1 4 1l2 1-1-2-1-1-1-1h-1l4 2 2 1-1-2-2-1-1-1h-1 4l3 1-3-2h-1 4l2 1-2-2h-1l-1-1h5v1q-5-3-10 0m2-9h-1l-2 2v2l-1-1 1-2 1-2-1 1-2 3v1-3l1-2-1 1-1 3v2-5l-1 1v3l-1 2v-3l-1-2v8-1l-2-4-1-1h-1q2 2 2 5l1 2h-1l-3-4h-1l-1-1h-1 1l3 4 2 2h-1l-1-1-1-1-1-1h-1l-2-1 1 1 1 1h1l1 1 1 1v1h1-2l-1-1h-3 1l2 1 1 1 1 1-1-1h-1l-4-1h-4l-1 1h-2l-2 1-1 1-2 1-1 1h1l1-1v1l-1 1 1-2 1-1v3l2-3v3l1-2 1-1v-1 1l1-1-1 2v2l1-2v-1l1-1v2l-1 2 1-2 1-1 2-1-1 1-1 1v2l1-2 2-1-1 1-1 1 3-2 2-1h1-1v1h4l1 1v-1l3-6 5-5 2-1 2-1-2 1 2-2h1l-3 1-1 1 1-2 1-1Z" data-rand=".3"/><path stroke="#000" stroke-width=".26635600000000004" stroke-miterlimit="3" fill="none" d="M244 110h-1l-3 3q-3 1-4 4l-3 5 1 1v-1l3-6 5-5m0 5h1m-2 6h1-4l-1 1h-1 1l3-3-1 1h-3l-2 1m2-1v-1h1m-4 2-1-1-1-1h-1l-4-1h-2m17 5h-3m0-1h1m1 2h1m-1-8h1m-4 2 2-1m2 8h1m-9-3v1l1 2q1 5 5 11l-3-6-3-8Zm-14-3h1m8-2h-1 1m0 0h1m0-2h1m2 3h1-1v-1m-2 0 1 1m1 2-1-1-1-1-2-1m-7 2 1-1h1m-2 2-1 1m3 1 1-1 1-1-2 1m10 0h-4m-3 4v3l2-2 2-2-2 4-1 3m3-3v1l-1 1m0-1 1-1m1 3h-1v1m0-1v-1m-3 2 1-1v-1m3-15 1 1" data-rand=".6" stroke-opacity=".3"/><path stroke="#000" stroke-width=".5327120000000001" stroke-miterlimit="3" fill="none" d="m231 115 1 1v1l1 1h1l-2-2-3-4h-1 1l1 1h1l3 4h1l-1-2q0-3-2-5h1l1 1 2 4v1-8l1 2v3l1-2v-3l1-1v5-2l1-3 1-1-1 2v3-1l2-3 1-1-1 2-1 2 1 1v-2l2-2h1l-1 1-1 2 1-1 2-1h1-1l-2 2 2-1-2 1-2 1h4-1l-1 1 1-1 1 1h-3l1 1h1l-4 1h2l1 1h-5 2l2 1q5-3 10 0v-1h-5l1 1h1l2 2-2-1h-4 1l3 2-3-1h-4 1l1 1 2 1 1 2-2-1-4-2h1l1 1 1 1 1 2-2-1q-2-2-4-1h1l1 1 1 1 1 2-2-2-1-1-1 1h-1 1v1h1l2 1h-2l1 1 1 2 2 1-4-1-3-1 3 2 4 2-4-1h-3l3 1 3 2h-1l-1-1h-3l2 1 3 3-2-2-3-1 2 3 1 3-1-1-1-2 1 3v4l-2-3-1-4v4l-2-3v-4l-1 2v2l-1 1v-4l-1 2v3l-1-4 1-3-1 3-1 1v2l-1-4v-2h-1l-1 3 1-3v-2h-1v5-1l-1-1v-4l-1 1v6-1l-2-3v-2 6l-1-4v-2l-1 1-1 3-1 3v-5 1l-2 3v2-4l-2 2-1 2 1-1q1-6 8-9l2-2h1q1-2 3-2h-3l-3 2 2-2 2-2h1v-1h1-1l-2 1-3 2 1-1 1-1-2 1-1 2v-3l-1 1-1 2 1-2v-2l-1 1v1l-1 2v-2l1-2v1h-1l-1 1-1 2v-3l-2 3v-3l-1 1-1 2 1-1v-1l-1 1h-1l1-1 2-1 1-1 2-1 1-1 1-1-1 1-2 1 1-1 1-2-1 1-2 1 1-1 1-1h-1l-2 1 1-1h1-3 1l1-1h-1l-2 1 1-1h2v-1l-1-1 1 1 1 1-1-2 2 1v1-2l1 1 1 1-1-1v-1l1 1 1 1v-1l-1-1h1v1l1 1v1-2l-1-1 2 1 1 2-1-2v-1l1 1 1 1v2-4h-1l1 1 1 1 1 1v1-2l-1-1v-1l2 2v2h1v-2h-1l-1-1-1-1 2 1h1l1 1v-1Zm9 2h-2l3-1h1l-1 1h-1Zm-5 3 2-1v1h-2Zm6 6-1-1h-3l4 1Zm-5-2 2-1v1h-2Zm3-6h-3 3l1-1-1 1Zm-11 1v-1 1Zm3-2v2h1v-1l-1-1-1-1 1 1Zm-10 3 2-2h-1l-1 1-1 1h1Zm3-2v1h-1 1v-1Zm7 14-1-1 1-1v2Zm-1-4v1-1Z" data-rand=".6" stroke-opacity=".3"/></g></g><g class="prop"><g class="f2"><path fill="#808078" d="m274 142-2-10-3-11-4-10-1-4-1-3-2 4 4 14q5 16 6 27l1 25-1 14-2 3-2 1h3l4 1h4l5-2-3-2h2-1l-1-6-3-17v-9l-1-5-2-10Z" data-rand=".9"/><path stroke="#41413d" stroke-opacity=".3" stroke-width=".17" stroke-linejoin="round" stroke-linecap="round" fill="none" d="M266 120h2m-1 8h2m-2-4 2-1m-1 10h3m-1 2h2m-1 11q0 0 0 0h1m1 6h1l1-1m-2 11h3m-3 5 4-1m-3 10h3m-2-4h2m-3 11h2l1-1m-5-3h3m-3 8h1l1-1m4 1v2l2 1m-9-53 2-1m-2 23h3m-2-10q0 0 0 0l1-1" data-rand=".9"/><path stroke="#000" stroke-width=".5599999999999999" stroke-linejoin="round" stroke-linecap="round" fill="none" d="m261 108 4 14q5 16 6 27l1 25-1 14-2 3-2 1h3l4 1h4l5-2-3-2h2-1l-1-6-3-17v-9l-1-5-2-10-2-10-3-11-4-10-1-4-1-3-2 4Z" data-rand="1" stroke-opacity=".3"/></g><g class="f1"><path fill="#234d1b" d="M279 82h-1l-3 2-1 1-1 1v-1l2-3 1-2-1 1-3 3v1l-1 1 1-2 1-2 1-2-1 1-3 3v2h-1l1-2v-2l1-2-1 1-2 4-1 2 1-1v-3l-1-3v1l-1 6-1 3v-1q0-3-2-5v-2h-1q2 2 1 6v3l-4-6h-1l-1-2h-1l1 1 3 5 1 4v-1l-1-2-1-1v-1 1h-1l-1-1v-1h-1l-1-1 1 1 1 1v2l-1 1v-2l-2-3 1 1v3h-1v-2l-1-2-1-2v1l1 2-1 3v-3l-1-2-1-1 1 2v3l-1-1v-2l-2-3 1 2v2-1l-1-1v-1l-1-1v4-3l-1-1h-1l1 1v2-1l-1-1-1-2v3l-1-1-1-2v3-1l-1-2v2h-3 2l1 1h-1l-1 1h3-1l-1 1h2l2-1-2 1-1 1h2l2-1-2 1-1 1v1l2-1 2-1-2 1-1 1v1h-5l-2 1-2 2 1-1 2-1-1 1-1 1 2-1 1-1-1 2v1l4-3-1 2-1 2 3-3h1l1-1v1h-1 1v-1l-1 2-1 2 2-2 1-1h1l-1 1-1 2 2-1v-1h1l-1 1 1-1-2 3 3-1 2-2-1 2-1 1 4-2h4-3v1l-3 1q-2 0-3 2l4-1h4l-4 2h-1l-4 1q-9 2-13 9v1l1-2 3-2v-1 1l-1 1v4l1-2 3-4v1l-1 4 2-3 2-4h1v1l-1 1v6l1-3 2-4v6l1-2q0-3 2-5v3l-1 1v1l1-1v3l1-3v-2h1l1-1v1l-1 1-2 5 3-3v-1 8l1-2 1-2 2-3-2 4v5l1-3 1-4v6l1-2 1-1q0-2 2-3l-1 5 1 5v-3l1-2 1 5 1 5 1-5v-4 2l1 2v-4l-2-4 3 2 2 2-2-4q-1-2-3-2 2-1 4 1l1 1 2 1-3-3-4-3 4 1 4 2-4-3-4-3 5 1 3 3-1-2-1-2-1-2h1l2 1-3-2v-1l-1-1h1l2 1 2 3-1-3-1-2-1-1v-1l4 3 2 2-1-2-1-2-1-1v-1l4 3 2 2-1-2-2-3-1-1h-1l5 2 3 1v1l-3-3-1-2 5 2 2 1-2-2-1-1-1-1 4 1 2 1q-5-4-13-3l-2-1-2-1 3 1h3l-1-1-2-1 5 1-1-1-1-1h3-1l-1-1h3l-2-1-3 1 2-1 3-1h-3l3-1 2-1h-2l-2 1-1 1h-1l2-2 2-1m-8 10h2l-2 1-1-1h-3 4m-5 3h-3 3m-1 5h-2 2m0 2h2v1l1 1-5-2h2m3-8-3-1h4l-1 1m-14-4v1-1m4 0 1 2v1l-1-1v-2l-1-1 1 1m-13-1 2-1h1l-3 2-2 1 2-2m5 1-1 1-1-1h2m4 14v1-1m-1 3 2-1-2 2v-1Z" data-rand=".3"/><path fill-opacity=".2" d="m250 106-1 1v4l1-3v-2m2 4 1-1v-2l-1 1v2m0-4 1-1h1v-1l-1 1h-1v1m-2-6-4 1q-9 2-13 9v1l1-2 3-2v-1 1l-1 1v4l1-2 3-4v1l-1 4 2-3 2-4h1v1l-1 1v6l1-3 2-4v6l1-2q0-3 2-5v3l1-3q2-3 5-4l-4 1-3 2 2-3m17 0h-2l2 1 1 1v-1l-1-1m0 2v1l1 1v1h1l-1-2-1-1m6-10-2 1h-2l-1 1-2 1h-1l-1 1h-1l1 1h5l-6 2h3l4 1h-2l2 1 2 3-1-3-1-2-1-1v-1l4 3 2 2-1-2-1-2-1-1v-1l4 3 2 2-1-2-2-3-1-1h-1l5 2 3 1v1l-3-3-1-2 5 2 2 1-2-2-1-1-1-1 4 1 2 1q-5-4-13-3m6-10h-1l-3 2-1 1-1 1v-1l2-3 1-2-1 1-3 3v1l-1 1 1-2 1-2 1-2-1 1-3 3v2h-1l1-2v-2l1-2-1 1-2 4-1 2 1-1v-3l-1-3v1l-1 6-1 3v-1q0-3-2-5v-2h-1q2 2 1 6v3l-4-6h-1l-1-2h-1l1 1 3 5 1 4v-1l-1-2-1-1h-1l-1-1v-1h-1l-1-1 1 1 1 1v1l1 1 1 2v1l-1-1-2-1-1-1h-2 1l3 2 1 2 1 1-1-1-2-1-4-1-3-1-1-1h-3l-2 1h-5l-2 1-2 2 1-1 2-1-1 1-1 1 2-1 1-1-1 2v1l4-3-1 2-1 2 3-3h1l1-1h1-1l-1 2-1 2 2-2 1-1h1l-1 1-1 2 2-1v-1h1l2-1-1 1h-1l-2 3 3-1 2-2-1 2-1 1 4-2h4-2 1l2 1 2 1 1 1 1-1 5-6 8-4 2-1 3-1h-3l4-1 1-1-4 1-1 1h-1l2-2 2-1Z" data-rand=".9"/><path stroke="#000" stroke-width=".27999999999999997" stroke-miterlimit="3" fill="none" d="M276 85h-1l-5 2-6 4-4 6h-1l1 1 1-1 5-6 8-4m-6 13h2l-4-1h-3l6-2h-5l-1-1-2 1m2-1h1l1-1m-5 2-1-2-1-1-2-1-4-1-3-1m19 11-1-1-2-1m0 0h2m0 2 1 1m1-10h2m-5 2 2-1m0 10v1h1m-10-7v4q0 6 3 15l-1-8-2-11Zm-5-8h-1 1m1 0 1 1m1-3v1m2 4v-1m-3-1 2 1m1 3-1-1-1-2-3-2m-9 0h3m-4 2h1-1m3 2h1l1-1-2 1m12 3-2-1-2-1h-1m-4 5-2 3 3-2 4-1q-3 1-5 4l-1 3m5-2h-1l-1 1m0-1h1l1-1m-1 4v1l-1 1m0-2 1-1m-4 1v-1l1-1m9-17 1 1" data-rand=".3" stroke-opacity=".3"/><path stroke="#000" stroke-width=".5599999999999999" stroke-miterlimit="3" fill="none" d="M259 88v1l1 1 1 2v1l-1-4-3-5-1-1h1l1 2h1l4 6v-3q1-4-1-6h1v2q2 2 2 5v1l1-3 1-6v-1l1 3v3l-1 1 1-2 2-4 1-1-1 2v2l-1 2h1v-2l3-3 1-1-1 2-1 2-1 2 1-1v-1l3-3 1-1-1 2-2 3v1l1-1 1-1 3-2h1l-2 1-2 2h1l1-1 2-1h2l-2 1-3 1h3l-3 1-2 1 3-1 2 1h-3l1 1h1-3l1 1 1 1-5-1 2 1 1 1h-3l-3-1 2 1 2 1q8-1 13 3l-2-1-4-1 1 1 1 1 2 2-2-1-5-2 1 2 3 3v-1l-3-1-5-2h1l1 1 2 3 1 2-2-2-4-3v1l1 1 1 2 1 2-2-2-4-3v1l1 1 1 2 1 3-2-3-2-1h-1l1 1v1l3 2-2-1h-1l1 2 1 2 1 2-3-3-5-1 4 3 4 3-4-2-4-1 4 3 3 3-2-1-1-1q-2-2-4-1 2 0 3 2l2 4-2-2-3-2 2 4v4l-1-2v-2 4l-1 5-1-5-1-5-1 2v3l-1-5 1-5q-2 1-2 3l-1 1-1 2v-6l-1 4-1 3v-5l2-4-2 3-1 2-1 2v-8 1l-3 3 2-5 1-1v-1l-1 1h-1v2l-1 3v-3l-1 1v-1l1-1v-3q-2 2-2 5l-1 2v-6l-2 4-1 3v-6l1-1v-1h-1l-2 4-2 3 1-4v-1l-3 4-1 2v-4l1-1v-1 1l-3 2-1 2v-1q4-7 13-9l4-1h1l4-2h-4l-4 1q1-2 3-2l3-1v-1h3-4l-4 2 1-1 1-2-2 2-3 1 2-3-1 1 1-1h-1v1l-2 1 1-2 1-1h-1l-1 1-2 2 1-2 1-2v1h-1 1v-1l-1 1h-1l-3 3 1-2 1-2-4 3v-1l1-2-1 1-2 1 1-1 1-1-2 1-1 1 2-2 2-1h5v-1l1-1 2-1-2 1-2 1v-1l1-1 2-1-2 1h-2l1-1 2-1-2 1h-2l1-1h1-3l1-1h1l-1-1h-2 3v-2l1 2v1-3l1 2 1 1v-3l1 2 1 1v1-2l-1-1h1l1 1v3-4l1 1v1l1 1v1-2l-1-2 2 3v2l1 1v-3l-1-2 1 1 1 2v3l1-3-1-2v-1l1 2 1 2v2h1v-3l-1-1 2 3v2l1-1v-2l-1-1-1-1 1 1h1v1l1 1h1v-1Zm11 4h-3 6l-2 1-1-1Zm-7 3h3-3Zm5 9-1-1v-1h-4l5 2Zm-5-4h2-2Zm5-6-3-1h4l-1 1Zm-14-3v-1 1Zm4-1v2l1 1v-1l-1-2-1-1 1 1Zm-13 0 3-2h-1l-2 1-2 2 2-1Zm5 0h-2l1 1 1-1Zm3 18v-1l2-1-2 2Zm1-4v1-1Z" data-rand=".1" stroke-opacity=".3"/></g></g><g class="prop"><g class="f1"><path fill="#ffd8a8" d="M310 243q-47-5-62-3-17 3-66 4l-45 1-82-1-91-1-48-3q-42-3-52-2l-40 4-49 5v105h750V240h-58l-49 3-49 4-25-1-34-3Z" data-rand=".1"/><path fill-opacity=".2" d="M-22 296h-11l-4 1 11 2q10 1 8-1l-4-2m71 0 4-1-7-1h-6l-7 1 5 1h11m-236-4-15 2-4 1h12l9 1q6 1 5-1-2-2-7-3m52-10h11l9 1q1-1-8-3l-11-2-4 1-2 1 1 1 4 1m355 19-7 1-3 1 7 1 4 1h8l3-1-7-3h-5m215 6-22-6-23-2-20 4-21 2 11 3 10 2h-44l-44 1-33 1h-33l-38-3q-23-2-37 0-18 3-44-1l-43-7q-11-1-26 2l-26 4-40 4q-23 2-41 0-38-4-57-4 9 0 29 4 19 4 29 4l-22 1h-23l-19-2-20-3q-24-3-39 0l-12 4-12 3v34h750v-36l-28-2-31-2-31-5m-68-21q6-1 2-2h-5q-5 1-4 2h7m-99-5q-3 0-3 2l2 2q2 1 5-1l4-1q2-1-8-2Z" data-rand=".3"/><path fill-opacity=".3" d="M-167 294v-1 1m83 12v-1 1m8 9v-1h-1v1h1m3-15h1v-1h-1v1m28 11v-1h1-1l-1 1h1m25-15h1v-1h-1v1m28 10v-1H7v1h1m24 4 1-1-1-1v2m11-14h1l-1-1v1m12 21 1-1 1-1h-1l-1 1v1m-2-11v-1 1m-6-3v-1 1m100 8h1l-1-1h-1l1 1m-12 6v-1 1m-320-45 2-1-1-1-1 1v-1 2m320 16h1v-1h-1v1m-51 5v-1h-1v1h1m-26-3 1-1v-1h-1v2m-20 3v-1 1m-2-12h-1l-1 1v1l2-1v-1m-81 1h1l-1-1v1m-8-10 1 1v-2l-1 1m-4 15v1h1v-1h-1m-27-10h1v-1h-1v1m-25 15h1v-1h-1v1m-26-10v-1h-1v1h1m-41 3v-1 1m15-8v1h1v-1 1h-1l1-1h-1m360 30h1v-1h-1v1m30-2v-1 1m-15-7h1v-1h-1v1m21 6 1-1v1-1h-1v1m78 2v-1 1m-9-10v-1 1m91 21v-1 1m12-6h1l-1-1v1m53-4v-1h-1v1h1m16-28h1l1-1h-1l-1 1m-49 5h1v-1h-2l1 1m-32 4h1v-1l-1 1m-51 5v-1h-1v1h1m-26-3 1-1v-1h-1v2m-23-7 1-1v-1h-1v1h-1l1 1m-37 11h1v-1h-1v1m14-15 1 1v-2l-1 1m-105 5v-1h-1l1 1Z" data-rand=".8"/><path stroke="#000" stroke-width=".867" stroke-linejoin="round" stroke-linecap="round" fill="none" d="M525 239h-59l-49 2-49 4q-7 1-24-1l-34-3q-47-5-62-2-17 2-66 3l-46 1-81-1-91-1-48-3q-42-2-52-1l-40 4-49 4" data-rand=".6" stroke-opacity=".4"/></g></g><g class="prop"><g class="f1"><path fill="#ffd91e" d="M49 245q-6-6-13-6-8 0-14 6-5 5-5 13t5 13q6 6 14 6 7 0 13-6 5-5 5-13t-5-13Z" data-rand=".9"/><path fill-opacity=".2" d="M51 248q-3-5-8-7l3 5 1 6q0 8-6 14-5 5-13 5l-7-1q2 3 6 5t9 2q7 0 13-6 5-5 5-13 0-6-3-10Z" data-rand=".4"/><path fill="#fff" fill-opacity=".4" d="m36 244 1-2q-2-2-5-1-4 1-7 4-3 2-4 5-1 2 1 3l4-1 5-3 5-5Z" data-rand=".7"/><path stroke="#000" stroke-width=".8800000000000001" stroke-linejoin="round" stroke-linecap="round" fill="none" d="M54 258q0 8-5 13-6 6-13 6-8 0-14-6-5-5-5-13t5-13q6-6 14-6 7 0 13 6 5 5 5 13Z" data-rand=".2" stroke-opacity=".8"/></g><g class="f2"><path fill="#b20f0a" d="M37 246h-4l-5 5q-7 7-8 17 3 4 7 6 4 3 9 3l2-12q1-10-1-19Z" data-rand="0"/><path fill-opacity=".2" d="m36 277 2-9q-5 3-10 3l-7-1h1l2 3h1l2 2 2 1h3l4 1Z" data-rand=".4"/><path fill="#fff" fill-opacity=".4" d="m33 246-1 1-4 4 6-5h-1Z" data-rand=".9"/><path stroke="#000" stroke-width=".8800000000000001" stroke-linejoin="round" stroke-linecap="round" fill="none" d="M36 277h0q-5 0-9-3-4-2-7-6" data-rand=".7" stroke-opacity=".8"/></g><g class="f3"><path fill="#0193c4" d="m53 265 1-7q0-5-3-10-2-4-7-7l-6 3q-5 4-2 3l4-1 2 1 4 3q6 5 7 15Z" data-rand=".1"/><path fill-opacity=".2" d="m49 245-5-4-1 1q3 3 4 8 5 6 6 15l1-3v-9l-1-3-2-2v-1l-1-1-1-1Z" data-rand="1"/><path stroke="#000" stroke-width=".8800000000000001" stroke-linejoin="round" stroke-linecap="round" fill="none" d="m44 241 7 7q3 5 3 10l-2 8" data-rand=".1" stroke-opacity=".8"/></g><g class="f4"><path fill="#0aaa6a" d="m35 239-6 2-5 3q5-2 9 1h3v-2l-1-4Z" data-rand=".5"/><path fill="#fff" fill-opacity=".4" d="M36 241h-4l-4 2q3 0 5 2h3v-4Z" data-rand="0"/><path stroke="#000" stroke-width=".8800000000000001" stroke-linejoin="round" stroke-linecap="round" fill="none" d="m23 244 5-3 7-2" data-rand=".9" stroke-opacity=".8"/></g><g class="f5"><path fill="#fff" d="m39 242-3-1-4 1-1 3 1 2 4 1 3-1 2-2q0-2-2-3Z" data-rand=".9"/><path fill="#fff" fill-opacity=".4" d="m37 242-1-1-4 1-1 3v1l2 1 3-3 1-2Z" data-rand=".8"/></g></g></svg>