<?xml version="1.0" encoding="utf-8"?>
<!-- Generator: Adobe Illustrator 22.0.0, SVG Export Plug-In . SVG Version: 6.00 Build 0)  -->
<svg version="1.1" id="Layer_1" xmlns="http://www.w3.org/2000/svg" xmlns:xlink="http://www.w3.org/1999/xlink" x="0px" y="0px"
	 viewBox="0 0 110 110" style="enable-background:new 0 0 110 110;" xml:space="preserve">
<style type="text/css">
	.st0{fill:#B5EBF7;}
	.st1{clip-path:url(#SVGID_2_);}
	.st2{fill:#DCF3F9;}
	.st3{fill:#FFFFFF;}
	.st4{fill:#1A8AC2;}
	.st5{fill:#42A6CF;}
	.st6{fill:#FFCCCC;}
	.st7{fill:#C89191;}
	.st8{fill:#F0B7B7;}
	.st9{fill:#2256B2;}
	.st10{fill:#3DAF75;}
	.st11{fill:#008951;}
	.st12{fill:#289B61;}
	.st13{fill:#4CBF7D;}
	.st14{fill:#4BBAE4;}
	.st15{fill:#78DB97;}
	.st16{fill:#2E38A3;}
	.st17{fill:#007C4F;}
	.st18{fill:none;stroke:#2256B2;stroke-width:0.4;stroke-linecap:round;stroke-miterlimit:10;}
	.st19{fill:#DEA29E;}
</style>
<title>Artboard 3 copy 2</title>
<g id="Design">
	<rect y="0" class="st0" width="110" height="110"/>
	<g>
		<defs>
			<rect id="SVGID_1_" y="0" width="110" height="110"/>
		</defs>
		<clipPath id="SVGID_2_">
			<use xlink:href="#SVGID_1_"  style="overflow:visible;"/>
		</clipPath>
		<g class="st1">
			<path class="st2" d="M63.8,48c-1.1-4.5-5.6-7.4-10.2-6.3c-0.3-4.7-4.5-8.4-10.2-8.4c-3.2,0-6.1,1.4-8.1,3.9
				c-1.5-5.7-7.3-9-13-7.5c-4.4,1.2-7.5,5-7.8,9.5c-1.9-1.6-4.3-2.5-6.8-2.5c-5.1,0-9.4,3.6-10.4,8.6c-0.6-0.1-1.2-0.2-1.8-0.2
				c-5.9,0.1-10.7,4.9-10.7,10.9c0,0.4,0,0.9,0.1,1.3h91.7C74.8,51.8,69.6,48.1,63.8,48z"/>
			<path class="st3" d="M24.7,28.4c0.1-0.3,0.1-0.7,0.1-1c0-2.8-2.6-5.2-6.2-5.2c-2.7,0-4.3,1-4.9,2.3c-1.2-3-4.5-4.5-7.5-3.4
				c-0.2,0.1-0.4,0.2-0.6,0.3c-0.6-2.6-3-4.2-5.8-4.2c-1.6,0-3.2,0.7-4.3,1.8c-1.1-1.5-2.9-2.4-4.7-2.4c-3,0-5.5,2.3-5.8,5.3
				c-0.7-0.3-1.4-0.4-2.2-0.4c-3.2,0-5.9,2.6-5.9,5.9c0,0.3,0,0.6,0.1,0.9L24.7,28.4z"/>
			<path class="st3" d="M67.3,59.3c0-4.4-2.7-11.4-11.3-11.4c-1.4-0.1-2.9,0.1-4.2,0.5c-0.2-4.8-4.2-8.5-9-8.3
				c-2.4,0.1-4.7,1.2-6.3,3.1c-1.3-4.6-6.1-7.3-10.7-6c-3.5,1-6.1,4.1-6.3,7.7c-3.7-3-9.2-2.5-12.2,1.2c-0.9,1.1-1.5,2.4-1.8,3.7
				c-0.5-0.1-1-0.1-1.5-0.1c-4.8,0-8.7,3.9-8.7,8.7c0,0.4,0,0.7,0.1,1.1H67.3z"/>
			<rect y="55" class="st4" width="110" height="55"/>
			<path class="st5" d="M21.9,59.9c2-0.3,4.1-0.6,6.1-0.7s4.1-0.1,6.2-0.1s4.1,0.2,6.1,0.2s4-0.1,6.1-0.2c4.1-0.2,8.2-0.5,12.3-0.6
				c4.1-0.2,8.3,0,12.3,0.6c-4.1-0.3-8.2-0.2-12.3,0.2c-4.1,0.3-8.1,0.9-12.3,1.4c-2.1,0.2-4.2,0.2-6.2,0.1
				c-2.1-0.1-4.1-0.3-6.2-0.5C30.1,59.8,26,59.7,21.9,59.9z"/>
			<path class="st5" d="M9.2,69.6c3.7-1.1,7.4-2,11.3-2.6c3.8-0.5,7.7-0.8,11.6-0.6c3.9,0.1,7.7,0.4,11.5,0.6s7.6,0.2,11.4,0.1
				s7.6-0.4,11.4-0.7s7.6-0.6,11.5-0.9c3.9-0.3,7.8-0.3,11.6,0.1c3.9,0.3,7.7,1.2,11.3,2.6c-3.8-0.7-7.6-1-11.4-1
				c-3.8,0.1-7.6,0.3-11.3,0.8c-7.6,1.1-15.3,1.7-23,2c-7.8,0.3-15.5-0.8-23.1-1.5c-3.8-0.3-7.6-0.4-11.4-0.2
				C16.8,68.5,13,69,9.2,69.6z"/>
			<path class="st6" d="M-8.8,81.8c0,0,2.8-3.7,56.2-4.6s75.2,8.5,75.2,8.5l-7.1,41.3l-121.7-2.5L-8.8,81.8z"/>
			<path class="st3" d="M73.4,20.6c0-2.1,2.1-4.2,4.8-4.2c0.8,0,1.7,0.2,2.4,0.7c0.6-1.7,2.3-2.8,4.1-2.8c0.8,0,1.6,0.2,2.3,0.5
				c0.5-2.1,2.5-3.6,4.8-3.4c1.3,0,2.6,0.6,3.4,1.5c1.6-2.1,4.6-2.6,6.7-1c1.1,0.8,1.8,2.1,1.9,3.4c2.5-1,5.3,0.2,6.2,2.7
				c0.3,0.8,0.4,1.7,0.3,2.5L73.4,20.6z"/>
			<path class="st7" d="M138.8,80.2c0,0-5.8-56.5-49.9-96.6c-3-2.7-3.1,2.4-3.1,2.4s38.3,41.4,40.4,96.6
				C127.8,127,138.8,80.2,138.8,80.2z"/>
			<path class="st7" d="M122.5,98.3c0,0-5.2-34.6-33-57.5c-1.9-1.6-2.2,2.1-2.2,2.1s24.8,23.8,27.7,57.2
				C117.3,126.9,122.5,98.3,122.5,98.3z"/>
			<ellipse transform="matrix(0.9645 -0.2642 0.2642 0.9645 -25.1242 8.9193)" class="st8" cx="20.6" cy="97.9" rx="16.2" ry="3"/>
			<path class="st3" d="M26.9,99c0,0-8.3-9-10.7-26.1s3.5-21.8,3.5-21.8s7.6,2.3,13.4,18.8s2.3,27.5,2.3,27.5L26.9,99z"/>
			<path class="st9" d="M21.2,51.9c-0.5-0.3-1-0.6-1.5-0.8c-0.4,0.4-0.8,0.8-1.1,1.3l11.2,46.1l2.7-0.5L21.2,51.9z"/>
			<path class="st10" d="M33.7,97.8l0.9-0.2L24.1,54.2c-0.4-0.4-0.9-0.8-1.2-1.1L33.7,97.8z"/>
			<path class="st10" d="M27.7,98.8l0.9-0.2L17.7,54c-0.2,0.5-0.4,0.9-0.6,1.4L27.7,98.8z"/>
			<ellipse class="st6" cx="31.2" cy="95.6" rx="2.2" ry="1.7"/>
			<ellipse class="st6" cx="27" cy="98" rx="2.2" ry="1.7"/>
			<ellipse class="st6" cx="29.2" cy="97.2" rx="2.2" ry="1.7"/>
			<ellipse class="st6" cx="25.1" cy="100.6" rx="2.7" ry="2.2"/>
			<ellipse class="st6" cx="33.9" cy="97.8" rx="2.7" ry="2.2"/>
			<ellipse class="st6" cx="33.3" cy="94.9" rx="2.2" ry="1.7"/>
			<ellipse class="st6" cx="35" cy="94.5" rx="2.2" ry="1.7"/>
			<ellipse class="st6" cx="36.9" cy="93.5" rx="2.2" ry="1.7"/>
			<ellipse transform="matrix(0.9839 -0.1786 0.1786 0.9839 -17.0882 7.2844)" class="st6" cx="31.9" cy="98.5" rx="2.2" ry="1.7"/>
			<path class="st7" d="M-9.5,105.3c3.2-31.1,17.7-65.1,38.2-88c2.4-2.6,2.6,4.5,2.6,4.5C21.4,32.8,2.3,63,2,109.2
				C1.7,147.9-12.1,130-9.5,105.3z"/>
			<path class="st11" d="M47.1,6l0.4-2.2c-6,0.3-16,3.7-19.9,11.4c0.6,0.8,1.3,1.6,2.1,2.2c3.6,0.9,10.4-2.6,15-3.8L44,12.4l1.7,0.9
				c2.8-0.8,5.7-1.7,8.5-2.6l-1.3-1.9l2.7,1.4c2.7-0.9,5.6-1.5,8.4-1.8c-4.2-3.1-9.4-4.8-14.6-4.9L47.1,6z"/>
			<path class="st12" d="M52.9,20.4l1.4-1.9c-7.7-5-17.3-4.7-24.2-1.9c-1.6,0.6-1.4,1.6-1.2,1.7c7.7,6.6,23.5,11.1,26.9,12.2
				l0.1-2.8l1.6,3.4c3.8,1.4,6,2,8.5,3.6c-1.5-6-4.9-11.3-9.9-15L52.9,20.4z"/>
			<path class="st10" d="M30.1,16.6c-0.4,0.7-0.8,1.5-0.9,2.4c1,3.7,5.8,12.8,14.6,17.8l1.1-2V38c2.2,2,4.2,4.2,5.8,6.7
				c0.2-8.6-1.7-16-6.7-20.4L41,23.7l1.5-1.2C39,19.3,34.7,17.3,30.1,16.6z"/>
			<path class="st12" d="M34.5,34.1l2,0.2c0.4-7.1-1.3-11.5-6.4-17.6c-0.9,0.3-1.8,0.7-2.6,1.2c-1.7,4-2.4,8.3-2,12.6l2-0.1l-2,1.6
				c0.3,3,0.9,5.3,1.2,8.2l2.1-0.5l-1.7,2.2c0.4,3.3,0.7,6.8,0.4,9.2c4-2.9,7.3-9.1,8.5-15L34.5,34.1z"/>
			<path class="st12" d="M32.9-1.8l2.6-1.4c1.3,6.1,1.7,14.1-5.4,19.9c-0.1,0.1-1.2-1.1-1.3-1.3c-1.9-3.4-2.4-8-2.4-13l1.5,0.1
				L26.4,1c0-3.1,0.1-5.9,0.2-8.9l2.2,0.7l-2.2-2.3c0.2-3,0-6-0.6-8.9c4.3,3.4,7.4,8.1,8.9,13.4L32.9-1.8z"/>
			<path class="st11" d="M30.1,16.6c-0.8,0.4-1.6,0.7-2.5,0.9c-3.8-1.2-9.8-6.7-16.6-14.4l2-1.2H9.9c-2.4-2.6-6.1-6.6-8.3-8
				C21.3-4.4,29,8.3,30.1,16.6z"/>
			<path class="st12" d="M10.8,9.8l0.1-2.1c7.4,0.1,14.4,3.4,19.2,9.1c-0.5,0.9-1.1,1.8-1.8,2.5c-8.5,2.4-19.9-2.3-23-3.2L6.7,14
				l-2.9,1.6c-3.5-0.9-8.2-2.1-10.9-2.1c3.5-3,9.5-5.5,16-5.9L10.8,9.8z"/>
			<path class="st13" d="M11,26.6l-1.3-1.5c4.6-5,11.4-8.5,20.4-8.5C28.6,24,22.2,29.9,11.4,36l-1-2.3L9.9,37
				C7,38.7,4.4,40.8,2,43.2C2.1,38.3,4.2,32,8.4,26.7L11,26.6z"/>
			<path class="st11" d="M84.1,27.6l-1.8-0.4c-1.1,4.8-0.1,9.9,2.8,13.9c0.7-0.2,1.3-0.4,1.9-0.8c1.3-2.4,2-9.7,1.6-16.4L87,24.4
				l1.6-1.6c-0.1-2.1,0.1-4.2,0.5-6.3c-3,2.4-5.3,5.7-6.3,9.4L84.1,27.6z"/>
			<path class="st12" d="M92,27.8l-1.3-1.2c-3.1,3.5-4.4,8.2-3.7,12.9c0.6,0.2,1.3,0.2,1.9,0.2c2.2-1.4,6.4-7.3,8.6-13l-1.5-0.3
				l2-0.7c0.8-1.8,1.9-3.5,3.1-5.1c-3.6,0.7-6.9,2.4-9.5,5.1L92,27.8z"/>
			<path class="st11" d="M98.8,33.2l-0.3-1.9c-4.8,0.9-9.1,3.9-11.5,8.2c0.4,0.5,0.9,1,1.5,1.4c6.4,0.3,13.7-4.3,15.6-5.2l-1.1-1.2
				l2.1,0.8c1.9-1,3.9-1.7,5.9-2.2c-3.4-1.8-7.3-2.5-11.2-2L98.8,33.2z"/>
			<path class="st12" d="M100.9,42.3l1.1-1.8C97.4,38,91.9,37.7,87,39.5c0,0.7,0.1,1.5,0.3,2.2c6.8,5.1,14.2,5.6,16.5,6.1l-0.1-1.8
				l1.2,2c2.2,0.5,4.4,1.2,6.4,2.2c-1.6-3.8-4.4-7-7.9-9.1L100.9,42.3z"/>
			<path class="st12" d="M73.6,36.6l-0.5-1.9c4.3-0.6,10.4-0.2,13.9,4.8c0.1,0.1-1.3,0.7-1.4,0.7c-9.7,2.3-21.7,0-23.4,0.2
				c2.6-2.8,5.9-4.7,9.6-5.5L73.6,36.6z"/>
			<path class="st10" d="M72.5,43.5l-0.4-1.4c4.5-2.8,9.1-4.1,14.9-2.5c0.8,0.9,1.6,1.9,2.2,2.9c-2.2,2.5-8.8,6.5-17.9,8.7l-0.5-1.8
				l-0.8,2c-2.8,0.9-4.9,0.7-6.9,1.5c1.6-4.1,4.4-7.5,8-10L72.5,43.5z"/>
			<path class="st12" d="M87,39.5c0.3,0.4,0.6,0.9,0.7,1.3c-0.4,2.7-0.5,6.1-6.1,12l-1-1.3l0.2,2.2c-1.5,1.9-5.6,5.5-6.3,7.1
				C73,55.7,73.6,41.8,87,39.5z"/>
			<path class="st10" d="M86.9,52.7l-1.5,0.5c-1.6-4.3-1.2-10.2,1.5-13.6c2.9,1.9,5.6,7.2,6.1,17.6l-1.7-0.3l1.8,1.5
				c0.2,2.2,0.6,4.4,1.3,6.5c-4-2.4-7.1-6.1-8.6-10.5L86.9,52.7z"/>
			<path class="st10" d="M77-3.7l-3.6-0.6c3.5-7.8,10.3-13.6,18.5-16c0.7,0.9,1.3,2,1.8,3.1c-0.7,4.6-3.7,9.5-7.3,14.3l-1-1.5
				l0.3,2.4c-2.3,3-4.8,5.9-7.1,8.7l-1.6-2.3l0.4,3.8c-2.4,2.8-4.4,5.8-6.1,9.1c-1.5-5.1-1.4-12.5,1.2-19.5L77-3.7z"/>
			<path class="st13" d="M92.4,9.3l-3,1.5c-3.1-8-2.5-17,1.6-24.6c1.2,0.1,2.4,0.4,3.5,0.9c2.9,3.8,4.7,9.5,5.6,15.6l-1.8-0.3l2,1.5
				c0.5,3.8,0.6,7.7,1,11.4l-2.5-0.2l2.8,2.1c0.3,3.7,1.1,7.4,2.3,10.9c-4.8-2.5-10.2-7.9-13.4-14.9L92.4,9.3z"/>
			<ellipse transform="matrix(0.9941 -0.1085 0.1085 0.9941 -9.4964 9.6537)" class="st8" cx="83.9" cy="92.1" rx="7.5" ry="2.9"/>
			<path class="st4" d="M95.3,90.4c-1.7,2.8-5.4,3.8-8.2,2.1c-2.8-1.7,3.3-12,6.1-10.3C96.1,83.9,97,87.6,95.3,90.4z"/>
			<path class="st14" d="M90.8,87.6c-1.7,2.8-2.3,5.8-3.7,4.9c-2.7-1.9-3.4-5.6-1.5-8.4c1.7-2.4,4.9-3.3,7.6-1.9
				C95.1,83.4,92.5,84.8,90.8,87.6z"/>
			<ellipse transform="matrix(0.5104 -0.8599 0.8599 0.5104 -30.9809 120.3198)" class="st3" cx="90.2" cy="87.4" rx="6" ry="4"/>
			<ellipse transform="matrix(0.5101 -0.8601 0.8601 0.5101 -30.9555 120.2638)" class="st15" cx="90.1" cy="87.3" rx="6" ry="2"/>
			
				<ellipse transform="matrix(0.5104 -0.8599 0.8599 0.5104 -25.2873 120.4205)" class="st0" cx="93.1" cy="82.4" rx="0.2" ry="1.4"/>
			<path class="st0" d="M87.1,92.3c-0.2-0.1-0.5-0.2-0.8-0.3c0.2,0.2,0.4,0.4,0.7,0.5c0.2,0.1,0.5,0.3,0.8,0.4
				C87.6,92.6,87.4,92.4,87.1,92.3z"/>
			<path class="st16" d="M59.3,53.2l0.3-0.1c0.2-0.1,0.4,0.1,0.5,0.3l9.7,39.9c0.1,0.2-0.1,0.4-0.3,0.5l-0.3,0.1
				c-0.2,0.1-0.4-0.1-0.5-0.3L59,53.7C58.9,53.5,59,53.3,59.3,53.2z"/>
			<path class="st9" d="M62.7,66.6c-1.4,0.4-2.8,1-4,1.8c-1.8,0.6-3.7,1-5.7,1c-0.7-0.1-1.5,0-2.2,0.1C48.2,69.9,48,71,47.1,71
				c-0.5,0-0.8-0.4-0.8-1.1c0.1-2.3,0.8-4.6,1.8-6.7c1.6-2.9,5.4-6.6,11.7-8.2s11.3,0,14.1,1.8c2.1,1.3,3.8,3.2,4.9,5.4
				c0.2,0.4,0.1,1-0.3,1.2c-0.1,0-0.1,0.1-0.2,0.1c-0.9,0.3-1.7-0.4-3.8,0.2c-0.6,0.2-1.3,0.5-1.8,0.8c-1.8,0.9-3.7,1.5-5.7,1.8
				C65.6,66.2,64.1,66.3,62.7,66.6z"/>
			<path class="st2" d="M58.4,68.4c-1.1-4.5-1.1-10,1.5-13.4c-5,1.4-9.8,8.9-8.5,14.4c1.4,0.2,2.9,0.2,4.3,0.1
				C56.7,69.3,57.6,68.9,58.4,68.4z"/>
			<path class="st2" d="M67.4,66.3c-1.1-4.5-3.8-9.6-7.6-11.3c4.8-1.1,13.2,3.7,14.5,9.4c0,0-2.8,1.2-4.2,1.6
				C69.3,66.2,68.4,66.3,67.4,66.3z"/>
			<path class="st14" d="M46.5,69.5c0.1,0.2,0.2,0.3,0.4,0.3c0.3,0,0.5,0,0.8-0.1c0.6-0.2,1.3-0.5,2.1-0.7c0.8-0.2,1.7-0.2,2.5,0
				c0.7,0.1,1.3,0.2,2,0.1c1.4-0.2,2.7-0.6,3.9-1.2c0.6-0.3,1.2-0.7,1.9-1.1c0.7-0.4,1.5-0.6,2.2-0.8c1.5-0.2,3-0.3,4.6-0.2
				c1.4,0,2.8-0.1,4.1-0.5c0.6-0.2,1.2-0.6,1.7-1c0.6-0.6,1.4-1,2.2-1.2c0.8-0.1,1.6-0.2,2.3-0.1c0.7,0,1.1-0.2,1.4-0.6
				c0.2-0.3,0.5-0.4,0.8-0.2c0,0,0,0,0,0c0.3,0.2,0.4,0.5,0.2,0.8c-0.3,0.4-0.6,0.8-1.1,1c-0.4,0.2-0.8,0.3-1.3,0.3
				c-0.7,0-1.3,0.1-2,0.2c-0.6,0.2-1.2,0.5-1.6,1c-0.6,0.6-1.3,1-2.1,1.2c-1.5,0.4-3,0.6-4.6,0.6c-1.4-0.1-2.8-0.1-4.2,0.1
				c-1.4,0.4-2.6,1-3.8,1.7c-1.4,0.7-2.9,1.2-4.4,1.4c-0.8,0.1-1.6,0-2.4-0.2c-0.6-0.2-1.3-0.2-1.9-0.1c-0.6,0.1-1.3,0.4-2.1,0.7
				c-0.4,0.1-0.9,0.2-1.4,0.1c-0.6-0.1-1-0.4-1.3-0.9c-0.2-0.3,0-0.7,0.3-0.9C46,69.2,46.3,69.3,46.5,69.5z"/>
			
				<ellipse transform="matrix(0.9645 -0.2642 0.2642 0.9645 -26.3767 17.349)" class="st8" cx="51.3" cy="106.7" rx="21.5" ry="7.7"/>
			<path class="st17" d="M73.3,92.7v9.2L50.1,73.6c-0.3-0.3-0.8-0.4-1.1-0.1s-0.4,0.8-0.1,1.1l23.4,28.4c0.7,0.9,1,1.1,1.4,1.1
				s0.8-0.3,0.8-0.9V92.7L73.3,92.7z"/>
			<path class="st13" d="M36.1,76.7l13.2-2c0.2,0,0.4,0.1,0.4,0.2c1.1,2.1,8.3,16.4,14.2,21c2.6,2-3.6,5.9-6.6,6.2
				c-4.4,0.4-6.3-0.3-9-3.4c-3.9-4.4-11.2-18.6-12.6-21.5C35.7,77.1,35.8,76.8,36.1,76.7C36,76.7,36,76.7,36.1,76.7z"/>
			<path class="st3" d="M38.8,76.2c0,0,8.4,16.8,13.2,21.9c1.7,1.8,2.6,2.5,6.5,2.2c1.3-0.1,0.2,1-0.7,1.2c-2.3,0.3-5.1,0.4-7.7-2.8
				c-3.7-4.6-12.9-22.2-12.9-22.2L38.8,76.2z"/>
			<path class="st3" d="M42.1,75.7c0,0,5.8,12,12.4,20.9c1.2,1.7,3.6,1.6,5.3,1.5c1.3-0.1,1,0.9,0.1,1c-3.7,0.5-5.1,0.2-6.8-2
				C47.4,89.6,40.5,76,40.5,76L42.1,75.7z"/>
			<path class="st3" d="M45.2,75.3c3.3,7.1,7.4,13.9,12.2,20.1c1.5,1.9,5.7,1.5,6.7,1.4c1.3-0.2-5.6,2.4-8.1-0.9
				c-4.7-6.4-8.8-13.2-12.3-20.4L45.2,75.3z"/>
			<path class="st3" d="M48.2,74.8c0,0,5.8,12.2,13.6,21.2c1.6,1.8,6.3,2.5,5.3,2.5c-3.1,0-4,1.6-6.6-1.6c-7.9-9.6-13.9-22-13.9-22
				L48.2,74.8z"/>
			<path class="st17" d="M57.3,95.9l-0.1-0.3c0-0.1,0-0.3,0.1-0.4l16.2-2.8c0.3-0.1,0.5,0.1,0.6,0.4l0,0c0,0.3-0.2,0.5-0.4,0.6
				l-15.8,2.7C57.6,96.2,57.3,96.2,57.3,95.9z"/>
			<path class="st15" d="M58.5,94.9l16-2.7c0.1,0,0.2,0,0.2,0.1c0,0,0,0,0,0.1c-0.4,3.2-2,6.1-3.7,6.8c-4.1,1.9-12.3,3-16.3,3
				c-0.2,0-0.4,0-0.5,0l0.2-0.1c3.1-0.8,3.9-7,3.9-7.1S58.3,95,58.5,94.9z"/>
			<path class="st17" d="M57.5,95.4c-0.3,0-0.6,0.3-0.6,0.6c0,0,0,0,0,0v8.8L35.3,76.2c-0.3-0.3-0.8-0.3-1,0
				c-0.2,0.2-0.3,0.6-0.1,0.9l22.1,29.2c0.4,0.5,0.7,0.7,1,0.7c0.4,0.1,0.7-0.2,0.8-0.6c0,0,0-0.1,0-0.1V96
				C58.1,95.7,57.8,95.4,57.5,95.4z"/>
			<path class="st17" d="M58.3,95.1c-0.5,0-0.9,0.1-1.4,0.3l-17.3,8.8V83l-1.2-0.3v21.9c0,0.2,0.1,0.5,0.3,0.7c0,0,0,0.1,0,0.1
				c0.1,0.3,0.5,0.4,0.8,0.3c0,0,0,0,0,0l17.9-9.1c0.3-0.2,0.5-0.4,0.3-0.7L58.3,95.1z"/>
		</g>
	</g>
	<path class="st0" d="M42.5,45.9l-4.4,7.6h8.4C44.4,51.5,43,48.9,42.5,45.9z"/>
	<line class="st18" x1="42.5" y1="55" x2="42.5" y2="46.2"/>
	<path class="st19" d="M42.5,54.8c-1.5,0.1-3-0.1-4.5-0.6l0,0V55c0,1,1.9,1.7,4.5,1.7S47,56.1,47,55v-0.8l0,0
		C45.6,54.7,44.1,54.8,42.5,54.8z"/>
</g>
</svg>
