<?xml version="1.0" encoding="UTF-8" standalone="no"?>
<!-- Generator: Adobe Illustrator 22.0.0, SVG Export Plug-In . SVG Version: 6.00 Build 0)  -->

<svg
   version="1.1"
   id="Layer_1"
   x="0px"
   y="0px"
   viewBox="0 0 1600 1600"
   xml:space="preserve"
   sodipodi:docname="bg-3.svg"
   inkscape:version="1.2.2 (b0a8486541, 2022-12-01)"
   width="1600"
   height="1600"
   xmlns:inkscape="http://www.inkscape.org/namespaces/inkscape"
   xmlns:sodipodi="http://sodipodi.sourceforge.net/DTD/sodipodi-0.dtd"
   xmlns:xlink="http://www.w3.org/1999/xlink"
   xmlns="http://www.w3.org/2000/svg"
   xmlns:svg="http://www.w3.org/2000/svg"><defs
   id="defs160" /><sodipodi:namedview
   id="namedview158"
   pagecolor="#ffffff"
   bordercolor="#cccccc"
   borderopacity="1"
   inkscape:showpageshadow="0"
   inkscape:pageopacity="1"
   inkscape:pagecheckerboard="0"
   inkscape:deskcolor="#d1d1d1"
   showgrid="false"
   inkscape:zoom="0.20765483"
   inkscape:cx="-975.17597"
   inkscape:cy="599.55263"
   inkscape:window-width="1920"
   inkscape:window-height="1009"
   inkscape:window-x="0"
   inkscape:window-y="0"
   inkscape:window-maximized="1"
   inkscape:current-layer="Layer_1" />
<style
   type="text/css"
   id="style2">
	.st0{fill:#B5EBF7;}
	.st1{clip-path:url(#SVGID_2_);}
	.st2{fill:#DCF3F9;}
	.st3{fill:#FFFFFF;}
	.st4{fill:#1A8AC2;}
	.st5{fill:#42A6CF;}
	.st6{fill:#FFCCCC;}
	.st7{fill:#C89191;}
	.st8{fill:#F0B7B7;}
	.st9{fill:#2256B2;}
	.st10{fill:#3DAF75;}
	.st11{fill:#008951;}
	.st12{fill:#289B61;}
	.st13{fill:#4CBF7D;}
	.st14{fill:#4BBAE4;}
	.st15{fill:#78DB97;}
	.st16{fill:#2E38A3;}
	.st17{fill:#007C4F;}
	.st18{fill:none;stroke:#2256B2;stroke-width:0.4;stroke-linecap:round;stroke-miterlimit:10;}
	.st19{fill:#DEA29E;}
</style>
<title
   id="title4">Artboard 3 copy 2</title>
<g
   id="Design"
   transform="scale(14.545455)">
	<rect
   y="0"
   class="st0"
   width="110"
   height="110"
   id="rect6"
   x="0" />
	<g
   id="g148">
		<defs
   id="defs9">
			<rect
   id="SVGID_1_"
   y="0"
   width="110"
   height="110"
   x="0" />
		</defs>
		<clipPath
   id="SVGID_2_">
			<use
   xlink:href="#SVGID_1_"
   style="overflow:visible"
   id="use11" />
		</clipPath>
		<g
   class="st1"
   clip-path="url(#SVGID_2_)"
   id="g146">
			<path
   class="st2"
   d="M 63.8,48 C 62.7,43.5 58.2,40.6 53.6,41.7 53.3,37 49.1,33.3 43.4,33.3 c -3.2,0 -6.1,1.4 -8.1,3.9 -1.5,-5.7 -7.3,-9 -13,-7.5 -4.4,1.2 -7.5,5 -7.8,9.5 -1.9,-1.6 -4.3,-2.5 -6.8,-2.5 -5.1,0 -9.4,3.6 -10.4,8.6 -0.6,-0.1 -1.2,-0.2 -1.8,-0.2 -5.9,0.1 -10.7,4.9 -10.7,10.9 0,0.4 0,0.9 0.1,1.3 H 76.6 C 74.8,51.8 69.6,48.1 63.8,48 Z"
   id="path14" />
			<path
   class="st3"
   d="m 24.7,28.4 c 0.1,-0.3 0.1,-0.7 0.1,-1 0,-2.8 -2.6,-5.2 -6.2,-5.2 -2.7,0 -4.3,1 -4.9,2.3 C 12.5,21.5 9.2,20 6.2,21.1 6,21.2 5.8,21.3 5.6,21.4 5,18.8 2.6,17.2 -0.2,17.2 c -1.6,0 -3.2,0.7 -4.3,1.8 -1.1,-1.5 -2.9,-2.4 -4.7,-2.4 -3,0 -5.5,2.3 -5.8,5.3 -0.7,-0.3 -1.4,-0.4 -2.2,-0.4 -3.2,0 -5.9,2.6 -5.9,5.9 0,0.3 0,0.6 0.1,0.9 z"
   id="path16" />
			<path
   class="st3"
   d="m 67.3,59.3 c 0,-4.4 -2.7,-11.4 -11.3,-11.4 -1.4,-0.1 -2.9,0.1 -4.2,0.5 -0.2,-4.8 -4.2,-8.5 -9,-8.3 -2.4,0.1 -4.7,1.2 -6.3,3.1 -1.3,-4.6 -6.1,-7.3 -10.7,-6 -3.5,1 -6.1,4.1 -6.3,7.7 -3.7,-3 -9.2,-2.5 -12.2,1.2 C 6.4,47.2 5.8,48.5 5.5,49.8 5,49.7 4.5,49.7 4,49.7 c -4.8,0 -8.7,3.9 -8.7,8.7 0,0.4 0,0.7 0.1,1.1 h 71.9 z"
   id="path18" />
			<rect
   y="55"
   class="st4"
   width="110"
   height="55"
   id="rect20"
   x="0" />
			<path
   class="st5"
   d="m 21.9,59.9 c 2,-0.3 4.1,-0.6 6.1,-0.7 2,-0.1 4.1,-0.1 6.2,-0.1 2.1,0 4.1,0.2 6.1,0.2 2,0 4,-0.1 6.1,-0.2 4.1,-0.2 8.2,-0.5 12.3,-0.6 4.1,-0.2 8.3,0 12.3,0.6 -4.1,-0.3 -8.2,-0.2 -12.3,0.2 -4.1,0.3 -8.1,0.9 -12.3,1.4 -2.1,0.2 -4.2,0.2 -6.2,0.1 C 38.1,60.7 36.1,60.5 34,60.3 30.1,59.8 26,59.7 21.9,59.9 Z"
   id="path22" />
			<path
   class="st5"
   d="m 9.2,69.6 c 3.7,-1.1 7.4,-2 11.3,-2.6 3.8,-0.5 7.7,-0.8 11.6,-0.6 3.9,0.1 7.7,0.4 11.5,0.6 3.8,0.2 7.6,0.2 11.4,0.1 3.8,-0.1 7.6,-0.4 11.4,-0.7 3.8,-0.3 7.6,-0.6 11.5,-0.9 3.9,-0.3 7.8,-0.3 11.6,0.1 3.9,0.3 7.7,1.2 11.3,2.6 -3.8,-0.7 -7.6,-1 -11.4,-1 -3.8,0.1 -7.6,0.3 -11.3,0.8 -7.6,1.1 -15.3,1.7 -23,2 C 47.3,70.3 39.6,69.2 32,68.5 28.2,68.2 24.4,68.1 20.6,68.3 16.8,68.5 13,69 9.2,69.6 Z"
   id="path24" />
			<path
   class="st6"
   d="m -8.8,81.8 c 0,0 2.8,-3.7 56.2,-4.6 53.4,-0.9 75.2,8.5 75.2,8.5 L 115.5,127 -6.2,124.5 Z"
   id="path26" />
			<path
   class="st3"
   d="m 73.4,20.6 c 0,-2.1 2.1,-4.2 4.8,-4.2 0.8,0 1.7,0.2 2.4,0.7 0.6,-1.7 2.3,-2.8 4.1,-2.8 0.8,0 1.6,0.2 2.3,0.5 0.5,-2.1 2.5,-3.6 4.8,-3.4 1.3,0 2.6,0.6 3.4,1.5 1.6,-2.1 4.6,-2.6 6.7,-1 1.1,0.8 1.8,2.1 1.9,3.4 2.5,-1 5.3,0.2 6.2,2.7 0.3,0.8 0.4,1.7 0.3,2.5 z"
   id="path28" />
			<path
   class="st7"
   d="m 138.8,80.2 c 0,0 -5.8,-56.5 -49.9,-96.6 -3,-2.7 -3.1,2.4 -3.1,2.4 0,0 38.3,41.4 40.4,96.6 1.6,44.4 12.6,-2.4 12.6,-2.4 z"
   id="path30" />
			<path
   class="st7"
   d="m 122.5,98.3 c 0,0 -5.2,-34.6 -33,-57.5 -1.9,-1.6 -2.2,2.1 -2.2,2.1 0,0 24.8,23.8 27.7,57.2 2.3,26.8 7.5,-1.8 7.5,-1.8 z"
   id="path32" />
			<ellipse
   transform="matrix(0.9645,-0.2642,0.2642,0.9645,-25.1242,8.9193)"
   class="st8"
   cx="20.6"
   cy="97.900002"
   rx="16.200001"
   ry="3"
   id="ellipse34" />
			<path
   class="st3"
   d="m 26.9,99 c 0,0 -8.3,-9 -10.7,-26.1 -2.4,-17.1 3.5,-21.8 3.5,-21.8 0,0 7.6,2.3 13.4,18.8 5.8,16.5 2.3,27.5 2.3,27.5 z"
   id="path36" />
			<path
   class="st9"
   d="m 21.2,51.9 c -0.5,-0.3 -1,-0.6 -1.5,-0.8 -0.4,0.4 -0.8,0.8 -1.1,1.3 L 29.8,98.5 32.5,98 Z"
   id="path38" />
			<path
   class="st10"
   d="M 33.7,97.8 34.6,97.6 24.1,54.2 c -0.4,-0.4 -0.9,-0.8 -1.2,-1.1 z"
   id="path40" />
			<path
   class="st10"
   d="M 27.7,98.8 28.6,98.6 17.7,54 c -0.2,0.5 -0.4,0.9 -0.6,1.4 z"
   id="path42" />
			<ellipse
   class="st6"
   cx="31.200001"
   cy="95.599998"
   rx="2.2"
   ry="1.7"
   id="ellipse44" />
			<ellipse
   class="st6"
   cx="27"
   cy="98"
   rx="2.2"
   ry="1.7"
   id="ellipse46" />
			<ellipse
   class="st6"
   cx="29.200001"
   cy="97.199997"
   rx="2.2"
   ry="1.7"
   id="ellipse48" />
			<ellipse
   class="st6"
   cx="25.1"
   cy="100.6"
   rx="2.7"
   ry="2.2"
   id="ellipse50" />
			<ellipse
   class="st6"
   cx="33.900002"
   cy="97.800003"
   rx="2.7"
   ry="2.2"
   id="ellipse52" />
			<ellipse
   class="st6"
   cx="33.299999"
   cy="94.900002"
   rx="2.2"
   ry="1.7"
   id="ellipse54" />
			<ellipse
   class="st6"
   cx="35"
   cy="94.5"
   rx="2.2"
   ry="1.7"
   id="ellipse56" />
			<ellipse
   class="st6"
   cx="36.900002"
   cy="93.5"
   rx="2.2"
   ry="1.7"
   id="ellipse58" />
			<ellipse
   transform="matrix(0.9839,-0.1786,0.1786,0.9839,-17.0882,7.2844)"
   class="st6"
   cx="31.9"
   cy="98.5"
   rx="2.2"
   ry="1.7"
   id="ellipse60" />
			<path
   class="st7"
   d="m -9.5,105.3 c 3.2,-31.1 17.7,-65.1 38.2,-88 2.4,-2.6 2.6,4.5 2.6,4.5 C 21.4,32.8 2.3,63 2,109.2 1.7,147.9 -12.1,130 -9.5,105.3 Z"
   id="path62" />
			<path
   class="st11"
   d="m 47.1,6 0.4,-2.2 c -6,0.3 -16,3.7 -19.9,11.4 0.6,0.8 1.3,1.6 2.1,2.2 3.6,0.9 10.4,-2.6 15,-3.8 l -0.7,-1.2 1.7,0.9 c 2.8,-0.8 5.7,-1.7 8.5,-2.6 l -1.3,-1.9 2.7,1.4 C 58.3,9.3 61.2,8.7 64,8.4 59.8,5.3 54.6,3.6 49.4,3.5 Z"
   id="path64" />
			<path
   class="st12"
   d="m 52.9,20.4 1.4,-1.9 c -7.7,-5 -17.3,-4.7 -24.2,-1.9 -1.6,0.6 -1.4,1.6 -1.2,1.7 7.7,6.6 23.5,11.1 26.9,12.2 l 0.1,-2.8 1.6,3.4 c 3.8,1.4 6,2 8.5,3.6 -1.5,-6 -4.9,-11.3 -9.9,-15 z"
   id="path66" />
			<path
   class="st10"
   d="m 30.1,16.6 c -0.4,0.7 -0.8,1.5 -0.9,2.4 1,3.7 5.8,12.8 14.6,17.8 l 1.1,-2 V 38 c 2.2,2 4.2,4.2 5.8,6.7 C 50.9,36.1 49,28.7 44,24.3 l -3,-0.6 1.5,-1.2 C 39,19.3 34.7,17.3 30.1,16.6 Z"
   id="path68" />
			<path
   class="st12"
   d="m 34.5,34.1 2,0.2 c 0.4,-7.1 -1.3,-11.5 -6.4,-17.6 -0.9,0.3 -1.8,0.7 -2.6,1.2 -1.7,4 -2.4,8.3 -2,12.6 l 2,-0.1 -2,1.6 c 0.3,3 0.9,5.3 1.2,8.2 l 2.1,-0.5 -1.7,2.2 c 0.4,3.3 0.7,6.8 0.4,9.2 4,-2.9 7.3,-9.1 8.5,-15 z"
   id="path70" />
			<path
   class="st12"
   d="m 32.9,-1.8 2.6,-1.4 C 36.8,2.9 37.2,10.9 30.1,16.7 30,16.8 28.9,15.6 28.8,15.4 26.9,12 26.4,7.4 26.4,2.4 L 27.9,2.5 26.4,1 c 0,-3.1 0.1,-5.9 0.2,-8.9 l 2.2,0.7 -2.2,-2.3 c 0.2,-3 0,-6 -0.6,-8.9 4.3,3.4 7.4,8.1 8.9,13.4 z"
   id="path72" />
			<path
   class="st11"
   d="M 30.1,16.6 C 29.3,17 28.5,17.3 27.6,17.5 23.8,16.3 17.8,10.8 11,3.1 L 13,1.9 H 9.9 C 7.5,-0.7 3.8,-4.7 1.6,-6.1 21.3,-4.4 29,8.3 30.1,16.6 Z"
   id="path74" />
			<path
   class="st12"
   d="m 10.8,9.8 0.1,-2.1 c 7.4,0.1 14.4,3.4 19.2,9.1 -0.5,0.9 -1.1,1.8 -1.8,2.5 C 19.8,21.7 8.4,17 5.3,16.1 L 6.7,14 3.8,15.6 C 0.3,14.7 -4.4,13.5 -7.1,13.5 -3.6,10.5 2.4,8 8.9,7.6 Z"
   id="path76" />
			<path
   class="st13"
   d="M 11,26.6 9.7,25.1 c 4.6,-5 11.4,-8.5 20.4,-8.5 C 28.6,24 22.2,29.9 11.4,36 L 10.4,33.7 9.9,37 C 7,38.7 4.4,40.8 2,43.2 2.1,38.3 4.2,32 8.4,26.7 Z"
   id="path78" />
			<path
   class="st11"
   d="m 84.1,27.6 -1.8,-0.4 c -1.1,4.8 -0.1,9.9 2.8,13.9 0.7,-0.2 1.3,-0.4 1.9,-0.8 1.3,-2.4 2,-9.7 1.6,-16.4 l -1.6,0.5 1.6,-1.6 c -0.1,-2.1 0.1,-4.2 0.5,-6.3 -3,2.4 -5.3,5.7 -6.3,9.4 z"
   id="path80" />
			<path
   class="st12"
   d="m 92,27.8 -1.3,-1.2 c -3.1,3.5 -4.4,8.2 -3.7,12.9 0.6,0.2 1.3,0.2 1.9,0.2 2.2,-1.4 6.4,-7.3 8.6,-13 L 96,26.4 98,25.7 c 0.8,-1.8 1.9,-3.5 3.1,-5.1 -3.6,0.7 -6.9,2.4 -9.5,5.1 z"
   id="path82" />
			<path
   class="st11"
   d="m 98.8,33.2 -0.3,-1.9 c -4.8,0.9 -9.1,3.9 -11.5,8.2 0.4,0.5 0.9,1 1.5,1.4 6.4,0.3 13.7,-4.3 15.6,-5.2 l -1.1,-1.2 2.1,0.8 c 1.9,-1 3.9,-1.7 5.9,-2.2 -3.4,-1.8 -7.3,-2.5 -11.2,-2 z"
   id="path84" />
			<path
   class="st12"
   d="m 100.9,42.3 1.1,-1.8 c -4.6,-2.5 -10.1,-2.8 -15,-1 0,0.7 0.1,1.5 0.3,2.2 6.8,5.1 14.2,5.6 16.5,6.1 l -0.1,-1.8 1.2,2 c 2.2,0.5 4.4,1.2 6.4,2.2 -1.6,-3.8 -4.4,-7 -7.9,-9.1 z"
   id="path86" />
			<path
   class="st12"
   d="m 73.6,36.6 -0.5,-1.9 c 4.3,-0.6 10.4,-0.2 13.9,4.8 0.1,0.1 -1.3,0.7 -1.4,0.7 -9.7,2.3 -21.7,0 -23.4,0.2 2.6,-2.8 5.9,-4.7 9.6,-5.5 z"
   id="path88" />
			<path
   class="st10"
   d="m 72.5,43.5 -0.4,-1.4 c 4.5,-2.8 9.1,-4.1 14.9,-2.5 0.8,0.9 1.6,1.9 2.2,2.9 C 87,45 80.4,49 71.3,51.2 l -0.5,-1.8 -0.8,2 c -2.8,0.9 -4.9,0.7 -6.9,1.5 1.6,-4.1 4.4,-7.5 8,-10 z"
   id="path90" />
			<path
   class="st12"
   d="m 87,39.5 c 0.3,0.4 0.6,0.9 0.7,1.3 -0.4,2.7 -0.5,6.1 -6.1,12 l -1,-1.3 0.2,2.2 c -1.5,1.9 -5.6,5.5 -6.3,7.1 C 73,55.7 73.6,41.8 87,39.5 Z"
   id="path92" />
			<path
   class="st10"
   d="m 86.9,52.7 -1.5,0.5 C 83.8,48.9 84.2,43 86.9,39.6 c 2.9,1.9 5.6,7.2 6.1,17.6 l -1.7,-0.3 1.8,1.5 c 0.2,2.2 0.6,4.4 1.3,6.5 -4,-2.4 -7.1,-6.1 -8.6,-10.5 z"
   id="path94" />
			<path
   class="st10"
   d="m 77,-3.7 -3.6,-0.6 c 3.5,-7.8 10.3,-13.6 18.5,-16 0.7,0.9 1.3,2 1.8,3.1 -0.7,4.6 -3.7,9.5 -7.3,14.3 l -1,-1.5 0.3,2.4 C 83.4,1 80.9,3.9 78.6,6.7 L 77,4.4 77.4,8.2 C 75,11 73,14 71.3,17.3 69.8,12.2 69.9,4.8 72.5,-2.2 Z"
   id="path96" />
			<path
   class="st13"
   d="m 92.4,9.3 -3,1.5 c -3.1,-8 -2.5,-17 1.6,-24.6 1.2,0.1 2.4,0.4 3.5,0.9 2.9,3.8 4.7,9.5 5.6,15.6 l -1.8,-0.3 2,1.5 c 0.5,3.8 0.6,7.7 1,11.4 l -2.5,-0.2 2.8,2.1 c 0.3,3.7 1.1,7.4 2.3,10.9 C 99.1,25.6 93.7,20.2 90.5,13.2 Z"
   id="path98" />
			<ellipse
   transform="matrix(0.9941,-0.1085,0.1085,0.9941,-9.4964,9.6537)"
   class="st8"
   cx="83.900002"
   cy="92.099998"
   rx="7.5"
   ry="2.9000001"
   id="ellipse100" />
			<path
   class="st4"
   d="m 95.3,90.4 c -1.7,2.8 -5.4,3.8 -8.2,2.1 -2.8,-1.7 3.3,-12 6.1,-10.3 2.9,1.7 3.8,5.4 2.1,8.2 z"
   id="path102" />
			<path
   class="st14"
   d="m 90.8,87.6 c -1.7,2.8 -2.3,5.8 -3.7,4.9 -2.7,-1.9 -3.4,-5.6 -1.5,-8.4 1.7,-2.4 4.9,-3.3 7.6,-1.9 1.9,1.2 -0.7,2.6 -2.4,5.4 z"
   id="path104" />
			<ellipse
   transform="matrix(0.5104,-0.8599,0.8599,0.5104,-30.9809,120.3198)"
   class="st3"
   cx="90.199997"
   cy="87.400002"
   rx="6"
   ry="4"
   id="ellipse106" />
			<ellipse
   transform="matrix(0.5101,-0.8601,0.8601,0.5101,-30.9555,120.2638)"
   class="st15"
   cx="90.099998"
   cy="87.300003"
   rx="6"
   ry="2"
   id="ellipse108" />
			
				<ellipse
   transform="matrix(0.5104,-0.8599,0.8599,0.5104,-25.2873,120.4205)"
   class="st0"
   cx="93.099998"
   cy="82.400002"
   rx="0.2"
   ry="1.4"
   id="ellipse110" />
			<path
   class="st0"
   d="m 87.1,92.3 c -0.2,-0.1 -0.5,-0.2 -0.8,-0.3 0.2,0.2 0.4,0.4 0.7,0.5 0.2,0.1 0.5,0.3 0.8,0.4 -0.2,-0.3 -0.4,-0.5 -0.7,-0.6 z"
   id="path112" />
			<path
   class="st16"
   d="m 59.3,53.2 0.3,-0.1 c 0.2,-0.1 0.4,0.1 0.5,0.3 l 9.7,39.9 c 0.1,0.2 -0.1,0.4 -0.3,0.5 l -0.3,0.1 C 69,94 68.8,93.8 68.7,93.6 L 59,53.7 c -0.1,-0.2 0,-0.4 0.3,-0.5 z"
   id="path114" />
			<path
   class="st9"
   d="m 62.7,66.6 c -1.4,0.4 -2.8,1 -4,1.8 -1.8,0.6 -3.7,1 -5.7,1 -0.7,-0.1 -1.5,0 -2.2,0.1 -2.6,0.4 -2.8,1.5 -3.7,1.5 -0.5,0 -0.8,-0.4 -0.8,-1.1 0.1,-2.3 0.8,-4.6 1.8,-6.7 1.6,-2.9 5.4,-6.6 11.7,-8.2 6.3,-1.6 11.3,0 14.1,1.8 2.1,1.3 3.8,3.2 4.9,5.4 0.2,0.4 0.1,1 -0.3,1.2 -0.1,0 -0.1,0.1 -0.2,0.1 -0.9,0.3 -1.7,-0.4 -3.8,0.2 -0.6,0.2 -1.3,0.5 -1.8,0.8 -1.8,0.9 -3.7,1.5 -5.7,1.8 -1.4,-0.1 -2.9,0 -4.3,0.3 z"
   id="path116" />
			<path
   class="st2"
   d="m 58.4,68.4 c -1.1,-4.5 -1.1,-10 1.5,-13.4 -5,1.4 -9.8,8.9 -8.5,14.4 1.4,0.2 2.9,0.2 4.3,0.1 1,-0.2 1.9,-0.6 2.7,-1.1 z"
   id="path118" />
			<path
   class="st2"
   d="M 67.4,66.3 C 66.3,61.8 63.6,56.7 59.8,55 c 4.8,-1.1 13.2,3.7 14.5,9.4 0,0 -2.8,1.2 -4.2,1.6 -0.8,0.2 -1.7,0.3 -2.7,0.3 z"
   id="path120" />
			<path
   class="st14"
   d="m 46.5,69.5 c 0.1,0.2 0.2,0.3 0.4,0.3 0.3,0 0.5,0 0.8,-0.1 0.6,-0.2 1.3,-0.5 2.1,-0.7 0.8,-0.2 1.7,-0.2 2.5,0 0.7,0.1 1.3,0.2 2,0.1 1.4,-0.2 2.7,-0.6 3.9,-1.2 0.6,-0.3 1.2,-0.7 1.9,-1.1 0.7,-0.4 1.5,-0.6 2.2,-0.8 1.5,-0.2 3,-0.3 4.6,-0.2 1.4,0 2.8,-0.1 4.1,-0.5 0.6,-0.2 1.2,-0.6 1.7,-1 0.6,-0.6 1.4,-1 2.2,-1.2 0.8,-0.1 1.6,-0.2 2.3,-0.1 0.7,0 1.1,-0.2 1.4,-0.6 0.2,-0.3 0.5,-0.4 0.8,-0.2 0,0 0,0 0,0 0.3,0.2 0.4,0.5 0.2,0.8 -0.3,0.4 -0.6,0.8 -1.1,1 -0.4,0.2 -0.8,0.3 -1.3,0.3 -0.7,0 -1.3,0.1 -2,0.2 -0.6,0.2 -1.2,0.5 -1.6,1 -0.6,0.6 -1.3,1 -2.1,1.2 -1.5,0.4 -3,0.6 -4.6,0.6 -1.4,-0.1 -2.8,-0.1 -4.2,0.1 -1.4,0.4 -2.6,1 -3.8,1.7 -1.4,0.7 -2.9,1.2 -4.4,1.4 -0.8,0.1 -1.6,0 -2.4,-0.2 -0.6,-0.2 -1.3,-0.2 -1.9,-0.1 -0.6,0.1 -1.3,0.4 -2.1,0.7 -0.4,0.1 -0.9,0.2 -1.4,0.1 -0.6,-0.1 -1,-0.4 -1.3,-0.9 -0.2,-0.3 0,-0.7 0.3,-0.9 0.3,0 0.6,0.1 0.8,0.3 z"
   id="path122" />
			
				<ellipse
   transform="matrix(0.9645,-0.2642,0.2642,0.9645,-26.3767,17.349)"
   class="st8"
   cx="51.299999"
   cy="106.7"
   rx="21.5"
   ry="7.6999998"
   id="ellipse124" />
			<path
   class="st17"
   d="m 73.3,92.7 v 9.2 L 50.1,73.6 c -0.3,-0.3 -0.8,-0.4 -1.1,-0.1 -0.3,0.3 -0.4,0.8 -0.1,1.1 L 72.3,103 c 0.7,0.9 1,1.1 1.4,1.1 0.4,0 0.8,-0.3 0.8,-0.9 V 92.7 Z"
   id="path126" />
			<path
   class="st13"
   d="m 36.1,76.7 13.2,-2 c 0.2,0 0.4,0.1 0.4,0.2 1.1,2.1 8.3,16.4 14.2,21 2.6,2 -3.6,5.9 -6.6,6.2 -4.4,0.4 -6.3,-0.3 -9,-3.4 -3.9,-4.4 -11.2,-18.6 -12.6,-21.5 0,-0.1 0.1,-0.4 0.4,-0.5 -0.1,0 -0.1,0 0,0 z"
   id="path128" />
			<path
   class="st3"
   d="m 38.8,76.2 c 0,0 8.4,16.8 13.2,21.9 1.7,1.8 2.6,2.5 6.5,2.2 1.3,-0.1 0.2,1 -0.7,1.2 -2.3,0.3 -5.1,0.4 -7.7,-2.8 C 46.4,94.1 37.2,76.5 37.2,76.5 Z"
   id="path130" />
			<path
   class="st3"
   d="m 42.1,75.7 c 0,0 5.8,12 12.4,20.9 1.2,1.7 3.6,1.6 5.3,1.5 1.3,-0.1 1,0.9 0.1,1 -3.7,0.5 -5.1,0.2 -6.8,-2 C 47.4,89.6 40.5,76 40.5,76 Z"
   id="path132" />
			<path
   class="st3"
   d="m 45.2,75.3 c 3.3,7.1 7.4,13.9 12.2,20.1 1.5,1.9 5.7,1.5 6.7,1.4 C 65.4,96.6 58.5,99.2 56,95.9 51.3,89.5 47.2,82.7 43.7,75.5 Z"
   id="path134" />
			<path
   class="st3"
   d="m 48.2,74.8 c 0,0 5.8,12.2 13.6,21.2 1.6,1.8 6.3,2.5 5.3,2.5 -3.1,0 -4,1.6 -6.6,-1.6 -7.9,-9.6 -13.9,-22 -13.9,-22 z"
   id="path136" />
			<path
   class="st17"
   d="m 57.3,95.9 -0.1,-0.3 c 0,-0.1 0,-0.3 0.1,-0.4 l 16.2,-2.8 c 0.3,-0.1 0.5,0.1 0.6,0.4 v 0 c 0,0.3 -0.2,0.5 -0.4,0.6 l -15.8,2.7 c -0.3,0.1 -0.6,0.1 -0.6,-0.2 z"
   id="path138" />
			<path
   class="st15"
   d="m 58.5,94.9 16,-2.7 c 0.1,0 0.2,0 0.2,0.1 0,0 0,0 0,0.1 -0.4,3.2 -2,6.1 -3.7,6.8 -4.1,1.9 -12.3,3 -16.3,3 -0.2,0 -0.4,0 -0.5,0 l 0.2,-0.1 c 3.1,-0.8 3.9,-7 3.9,-7.1 0,-0.1 0,0 0.2,-0.1 z"
   id="path140" />
			<path
   class="st17"
   d="m 57.5,95.4 c -0.3,0 -0.6,0.3 -0.6,0.6 0,0 0,0 0,0 v 8.8 L 35.3,76.2 c -0.3,-0.3 -0.8,-0.3 -1,0 -0.2,0.2 -0.3,0.6 -0.1,0.9 l 22.1,29.2 c 0.4,0.5 0.7,0.7 1,0.7 0.4,0.1 0.7,-0.2 0.8,-0.6 0,0 0,-0.1 0,-0.1 V 96 c 0,-0.3 -0.3,-0.6 -0.6,-0.6 z"
   id="path142" />
			<path
   class="st17"
   d="m 58.3,95.1 c -0.5,0 -0.9,0.1 -1.4,0.3 l -17.3,8.8 V 83 l -1.2,-0.3 v 21.9 c 0,0.2 0.1,0.5 0.3,0.7 0,0 0,0.1 0,0.1 0.1,0.3 0.5,0.4 0.8,0.3 0,0 0,0 0,0 l 17.9,-9.1 c 0.3,-0.2 0.5,-0.4 0.3,-0.7 z"
   id="path144" />
		</g>
	</g>
	<path
   class="st0"
   d="m 42.5,45.9 -4.4,7.6 h 8.4 c -2.1,-2 -3.5,-4.6 -4,-7.6 z"
   id="path150" />
	<line
   class="st18"
   x1="42.5"
   y1="55"
   x2="42.5"
   y2="46.200001"
   id="line152" />
	<path
   class="st19"
   d="M 42.5,54.8 C 41,54.9 39.5,54.7 38,54.2 v 0 0.8 c 0,1 1.9,1.7 4.5,1.7 2.6,0 4.5,-0.6 4.5,-1.7 v -0.8 0 c -1.4,0.5 -2.9,0.6 -4.5,0.6 z"
   id="path154" />
</g>
</svg>
